<svg xmlns="http://www.w3.org/2000/svg" class="ionicon" viewBox="0 0 512 512"><title>Card Recurrent</title><defs><marker id="a" overflow="visible" markerHeight="4" markerWidth="3.46000005" orient="-49.00" preserveAspectRatio="xMidYMid" viewBox="0 0 5.3244081 6.1553851"><path transform="scale(.5)" d="m5.77 0-8.65 5v-10z" fill="context-stroke" fill-rule="evenodd" stroke="context-stroke" stroke-width="1pt"/></marker></defs><g transform="matrix(1.09 0 0 1.09 -20.2 -26.7)" fill="none" stroke="currentColor" stroke-linejoin="round"><rect x="163" y="181" width="200" height="154" rx="26.9" ry="26.9" stroke-linecap="round" stroke-width="15.4"/><path d="m163 227h200m-161 51.9h23.1v9.61h-23.1z" stroke-width="28.8"/></g><path d="m323 54.9c-52.6-13.5-110-5.3-157 22.3-46.8 27.6-81.9 74.3-95.5 127-11.7 45.5-7.44 94.9 11.9 138 19.4 42.8 53.7 78.5 95.7 99.7 41.9 21.1 91.1 27.4 137 17.6 45.9-9.86 88.2-35.8 118-72.3" fill="none" marker-end="url(#a)" stroke="#000" stroke-linecap="round" stroke-width="37"/></svg>
