<svg class="ionicon" version="1.1" viewBox="0 0 512 512" xmlns="http://www.w3.org/2000/svg"><title>Focal</title><g fill="none" stroke="#000" stroke-linecap="round" stroke-linejoin="round" stroke-width="32"><path d="m458 104-403 152 403 152"/><path transform="rotate(-90)" d="m-174 293a92.4 48.3 0 0 1-81.8 25.9 92.4 48.3 0 0 1-81.9-25.8"/><path transform="matrix(0,-1,-1,0,0,0)" d="m-174-282a92.4 48.3 0 0 1-81.8 25.9 92.4 48.3 0 0 1-81.9-25.8"/><path transform="rotate(-90)" d="m-131 397a141 47.4 0 0 1-125 25.4 141 47.4 0 0 1-125-25.3"/></g></svg>
