<!-- Copyright Clément Fontaine under CC BY-NC-SA 4.0 -->
<svg class="ionicon" version="1.1" viewBox="0 0 512 512" xmlns="http://www.w3.org/2000/svg"><title>Frame</title><g transform="matrix(.7 0 0 .7 48.7 48.7)" fill="none" stroke="currentColor"><rect x="96" y="128" width="400" height="336" rx="0" ry="0" stroke-linejoin="round" stroke-width="32"/><ellipse cx="373" cy="220" rx="30.8" ry="30.5" stroke-miterlimit="10" stroke-width="32"/><path d="m342 372-87.2-86.4a30.9 30.9 0 0 0-42.2-1.21l-117 103m169 76.4 119-118a31 31 0 0 1 41.5-1.87l70.7 58.5" stroke-linecap="round" stroke-linejoin="round" stroke-width="32"/></g><rect x="48.3" y="70.6" width="415" height="371" rx="0" ry="0" fill="none" stroke="currentColor" stroke-linejoin="round" stroke-width="23.1"/><path transform="scale(-1)" d="m-230-67.6a26.2 26.2 0 0 1-13.1 22.7 26.2 26.2 0 0 1-26.2-1e-6 26.2 26.2 0 0 1-13.1-22.7" fill="none" stroke="#000" stroke-linecap="round" stroke-linejoin="round" stroke-width="22.4"/></svg>
