<!-- Copyright Clément Fontaine under CC BY-NC-SA 4.0 -->
<svg xmlns="http://www.w3.org/2000/svg" class="ionicon" viewBox="0 0 512 512"><title>Logo XMPP</title><path d="m16.1 81.6c2.92 114 97.1 232 210 298-26.1 20.6-55.5 36.2-87.7 44.3v2.26c-0.0263 5e-3 -0.0593 0.0137-0.0857 0.0219v4.49c34.2-2.92 66.5-12 96.3-25.5 7.23-2.98 14.4-6.25 21.6-9.69 7.15 3.44 14.3 6.7 21.6 9.69 29.7 13.6 62 22.6 96.3 25.5v-4.49c-0.0274-5e-3 -0.0592-0.0137-0.0856-0.0219v-2.26c-32.2-8.11-61.7-23.8-87.7-44.3 113-65.4 207-184 210-298l-67.7 26.3-0.241 0.091-20.5 7.34-61.5 18.2-5e-3 6e-3c0.208 3.6 0.327 7.21 0.327 10.9 0 67-33.9 149-90.2 208-56.3-58.8-90.2-141-90.2-208 0-3.64 0.118-7.25 0.327-10.9l-5e-3 -5e-3 -61.6-18.2-20.5-7.31-0.268-0.102z"/></svg>
