<!-- Copyright Clément Fontaine under CC BY-NC-SA 4.0 -->
<svg class="ionicon" version="1.1" viewBox="0 0 512 512" xmlns="http://www.w3.org/2000/svg"><title>Logo USDC</title><g transform="matrix(8.96 0 0 8.96 32 32)"><path d="m25-2.94e-5c13.8 0 25 11.2 25 25 0 13.8-11.2 25-25 25s-25-11.2-25-25c0-13.8 11.2-25 25-25zm5.71 7.4c-0.564-0.18-1.02 0.155-1.02 0.746v1.46c0 0.397 0.299 0.849 0.672 0.985 5.98 2.19 10.3 7.94 10.3 14.7 0 6.73-4.28 12.5-10.3 14.7-0.409 0.15-0.672 0.55-0.672 0.985v1.46c0 0.592 0.461 0.926 1.02 0.746 7.56-2.42 13-9.5 13-17.9 0-8.36-5.48-15.4-13-17.9zm-10.4 0.746c0-0.592-0.461-0.926-1.02-0.746-7.56 2.42-13 9.5-13 17.9 0 8.36 5.48 15.4 13 17.9 0.564 0.18 1.02-0.155 1.02-0.746v-1.46c0-0.397-0.299-0.849-0.672-0.985-5.98-2.19-10.3-7.94-10.3-14.7 0-6.73 4.28-12.5 10.3-14.7 0.373-0.137 0.672-0.588 0.672-0.985zm5.47 4.62h-1.56c-0.431 0-0.781 0.35-0.781 0.781v2.42c-3.1 0.44-5.1 2.5-5.1 5.15 0 3.42 2.07 4.75 6.44 5.34 2.96 0.485 3.81 1.12 3.81 2.81 0 1.69-1.43 2.81-3.45 2.81-2.73 0-3.63-1.19-3.96-2.74-0.0784-0.366-0.392-0.634-0.766-0.634h-1.78c-0.449 0-0.8 0.404-0.723 0.847 0.454 2.6 2.12 4.51 5.53 4.97v2.47c0 0.431 0.35 0.781 0.781 0.781h1.56c0.431 0 0.781-0.35 0.781-0.781v-2.47c3.23-0.513 5.29-2.76 5.29-5.54 0-3.65-2.22-4.88-6.51-5.47-3.17-0.46-3.78-1.2-3.78-2.68 0-1.4 1.07-2.4 3.14-2.4 1.87 0 2.95 0.653 3.39 2.16 0.0992 0.336 0.4 0.574 0.751 0.574h1.64c0.458 0 0.815-0.421 0.717-0.869-0.52-2.38-2.12-3.81-4.64-4.26v-2.49c0-0.431-0.35-0.781-0.781-0.781z"/></g></svg>
