<svg class="ionicon" version="1.1" viewBox="0 0 512 512" xmlns="http://www.w3.org/2000/svg"><title>Logo Odysee</title><path d="m471 415c-7.37-30.3-17-60-28.9-88.9-9.95-25.1-42.4-56-63.3-71.4-7.51-5.6-8.21-16.6-1.49-23.1 20.4-19.7 56.8-57.7 68.6-77.6 7.69-14 22.8-40.7 23.5-63.8 1.49-17.2-0.866-37-23.6-46.1-11.4-5.07-24.6-3.36-34.3 4.42-14.4 9.91-19.2 37-29.2 64.1-11.7 31.2-30.2 35.1-40 35.1-9.76 0-3.37-10.3-25.7-75-22.4-64.7-81.7-52.9-126-26.2-56.9 34-31.6 106-17.5 153-7.84 7.79-37.9 13.6-65.2 28.2-16.9 9.09-31.4 15-45.5 26.3-19.7 15.8-28.2 33.7-21.4 58 2.94 8.56 9.12 15.6 17.2 19.7 16.1 7.31 39.7-3.32 75.9-30.5 17.8-11.5 37.1-20.5 57.4-26.5 0 0 21.9 33.7 42.3 73.4 20.4 39.8-21.9 52.9-26.3 52.9-4.38 0-71.2-6.49-55.9 49.9 15.3 56.4 95.8 36 137 8.75 41.3-27.2 31.1-116 31.1-116 40.3-6.3 53 36.5 56.9 58.3s-4.81 59.8 36 60.8c5.75-0.0479 11.5-0.872 17-2.45 22-5.1 34.8-16.2 40-27.9 2.35-5.49 2.89-11.6 1.54-17.4zm-204-264c-41.3 15.6-61.3-4.81-63.7-42.3-2.93-42.3 36.5-52.9 36.5-52.9 43.8-14.4 55.4 6.3 65.6 37.4s2.45 42.3-38.4 57.8z"/></svg>
