<!-- Copyright Clément Fontaine under CC BY-NC-SA 4.0 -->
<svg xmlns="http://www.w3.org/2000/svg" class="ionicon" viewBox="0 0 512 512"><title>Logo BAT</title><path d="m256 53.9c-2.48 0-4.97 1.64-6.86 4.91l-223 387c-1.88 3.27-2.06 6.23-0.827 8.39l137-79.5 94.2-164 94.2 164 137 79.5h4e-3c1.24-2.15 1.05-5.12-0.827-8.39l-223-387c-1.88-3.27-4.37-4.91-6.85-4.91zm231 401-137-79.5h-188l-137 79.5c1.23 2.17 3.88 3.51 7.65 3.51h446c3.77 0 6.42-1.34 7.66-3.51z" clip-rule="evenodd" fill="#000" fill-rule="evenodd" stroke-width="2.46"/></svg>
