<svg class="ionicon" viewBox="0 0 512 512" xmlns="http://www.w3.org/2000/svg"><title>Logo Ko-fi</title><path d="m488 196c-15.1-79.9-95-89.8-95-89.8h-358c-11.8 0-13.3 15.6-13.3 15.6s-1.6 143-0.43 231c3.21 47.4 50.6 52.2 50.6 52.2s162-0.45 234-0.958c47.7-8.33 52.5-50.2 52-73 85.1 4.69 145-55.3 130-135zm-216 68.6c-24.4 28.4-78.4 77.7-78.4 77.7s-2.37 2.33-6.06 0.45c-1.49-1.11-2.11-1.76-2.11-1.76-8.66-8.62-65.8-59.6-78.9-77.3-13.9-18.9-20.4-52.8-1.78-72.5 18.6-19.7 58.8-21.2 85.3 7.96 0 0 30.6-34.8 67.8-18.8 37.2 16 35.8 58.9 14.1 84.3zm121 9.35c-18.1 2.27-32.9 0.547-32.9 0.547v-111h34.6s38.5 10.8 38.5 51.6c0 37.4-19.3 52.1-40.3 58.9z" stroke-width="19.6"/></svg>
