<!-- Copyright Clément Fontaine under CC BY-NC-SA 4.0 -->
<svg class="ionicon" version="1.1" viewBox="0 0 512 512" xmlns="http://www.w3.org/2000/svg"><title>Logo Tether</title><path d="m122 66.8h272c6.5 0 12.5 3.37 15.8 8.84l79.4 134c4.12 6.94 2.89 15.7-2.98 21.3l-219 209c-7.08 6.78-18.5 6.78-25.5 0l-218-209c-6.01-5.76-7.13-14.8-2.72-21.8l84.9-134c3.3-5.22 9.17-8.41 15.5-8.41zm237 59.7v37.5h-77.6v26c54.5 2.78 95.4 14.2 95.7 27.9l-2e-3 28.6c-0.303 13.7-41.2 25.1-95.7 27.9v63.9h-51.5v-63.9c-54.5-2.78-95.4-14.2-95.7-27.9l2e-3 -28.6c0.303-13.7 41.2-25.1 95.7-27.9v-26h-77.6v-37.5zm-103 128c58.2 0 107-9.66 119-22.6-10.1-10.9-46.6-19.6-92.9-21.9v27.3c-8.31 0.424-16.9 0.647-25.8 0.647-8.84 0-17.5-0.223-25.8-0.647v-27.3c-46.3 2.36-82.8 11-92.9 21.9 11.9 12.9 60.5 22.6 119 22.6z" fill-rule="evenodd"/></svg>
