<svg class="ionicon" version="1.1" viewBox="0 0 512 512" xmlns="http://www.w3.org/2000/svg"><title>Logo Threema</title><path d="m256 419c18.7 0 33.8 15.1 33.8 33.8 0 18.7-15.1 33.8-33.8 33.8-18.6 0-33.7-15.1-33.7-33.8 0-18.6 15.1-33.8 33.7-33.8zm-122 0c18.7 0 33.8 15.1 33.8 33.8 0 18.7-15.1 33.8-33.8 33.8-18.6 0-33.7-15.1-33.7-33.8 0-18.6 15.1-33.8 33.7-33.8zm244 0c18.7 0 33.8 15.1 33.8 33.8 0 18.7-15.1 33.8-33.8 33.8-18.6 0-33.7-15.1-33.7-33.8 0-18.6 15.1-33.8 33.7-33.8zm-122-394c110 0 198 78.2 198 175 0 96.4-88.8 175-198 175-31.2 0-60.7-6.33-86.9-17.6l-99.4 24.8 21.2-85c-21-27.7-33.3-61-33.3-96.8 0-96.4 88.8-175 198-175zm-0.0264 81.4c-31.1 0-56.3 25.2-56.3 56.2v22.5h-2.21c-5 0-9.05 4.05-9.05 9.05v79.3c0 5 4.05 9.05 9.05 9.05h117c5 0 9.05-4.05 9.05-9.05v-79.3c0-5-4.05-9.05-9.05-9.05h-2.21v-22.5c0-31-25.2-56.2-56.3-56.2zm0.0104 22.5c18.7 0 33.8 15.1 33.8 33.7v22.5h-67.5v-22.5c0-18.6 15.1-33.7 33.8-33.7z"/></svg>
