<!-- Copyright Clément Fontaine under CC BY-NC-SA 4.0 -->
<svg class="ionicon" viewBox="0 0 512 512" xmlns="http://www.w3.org/2000/svg"><title>Logo Ko-fi</title><g transform="matrix(3.8 0 0 3.8 -.316 -1.62)"><path d="m51.2 89.7c0.547 0.11 1.02-0.364 1.02-0.364s13.5-12.3 19.7-19.4c5.4-6.38 5.66-17-3.45-20.9-9.34-3.94-17 4.67-17 4.67-6.64-7.37-16.7-6.88-21.4-1.97-4.67 4.91-2.96 13.3 0.491 18.2 3.01 4.18 18.1 17.7 20 19.4 0.183 0.165 0.401 0.292 0.639 0.329"/><path d="m12.5 93.2c-0.459-19.6-0.241-55.8-0.232-57.4v-0.966c0.0134-0.0888 0.234-1.34 1.06-1.34l84.6 0.0065c5.4 0 10.7 1.63 14.9 4.6 0.0303 0.0217 0.0606 0.0433 0.091 0.0628 5.09 3.31 8.35 8.42 9.7 15.2 1.57 7.99-0.201 15.5-5 21-5.41 6.28-14.2 9.64-24 9.19-0.843-0.039-1.68 0.273-2.29 0.858-0.611 0.585-0.962 1.41-0.962 2.25 0 8.46-3.01 13.3-9.18 14.9-0.613 0.147-1.06 0.147-1.94 0.147l-0.0613 2e-3c-16.2 0.204-47.6 0.23-56.9 0.232h-0.336c-0.023 0-2.33-0.0433-4.64-1.16-2.94-1.42-4.55-4-4.79-7.66zm116-41v-0.0046c-2e-3 -0.0069-2e-3 -0.0114-5e-3 -0.0173l-5e-3 -0.0216c-2.1-10.5-7.88-16.2-12.4-19.2-5.25-3.67-11.8-5.7-18.5-5.7l-84.6-0.0043c-4.76 0-7.29 4.38-7.29 7.54v0.966c-0.0024 0.373-0.234 37.6 0.235 57.6 0.00108 0.0389 0.00286 0.078 0.00515 0.119 0.469 7.6 4.77 11.2 8.29 12.9 3.64 1.77 7.2 1.79 7.35 1.79h0.0147c1.58 0 38.9-2e-3 57.3-0.234 1.06 0 2.07 0 3.41-0.323l0.0476-0.0103c5.57-1.42 9.54-4.68 11.8-9.69 1.07-2.37 1.71-5.03 1.97-8.13 5.11-0.13 9.92-1.14 14.3-3.01 4.62-1.97 8.52-4.78 11.6-8.37 6.07-7.05 8.34-16.4 6.39-26.3"/><path d="m96.9 69.3v-21.6h2.54c2.87 0 5.42 1.17 7.18 3.31l0.0476 0.0563c1.47 1.69 2.19 3.84 2.19 6.57-2e-3 6.21-2.28 9.64-7.61 11.4-1.39 0.145-2.85 0.227-4.35 0.245zm-3.33 6.16c0.11 0.0069 1.12 0.0737 2.7 0.0737 2.04 0 4.05-0.108 5.98-0.323 0.201-0.0216 0.403-0.065 0.598-0.126 8.12-2.58 12.2-8.45 12.2-17.5 2e-3 -4.22-1.24-7.8-3.69-10.6-2.97-3.57-7.21-5.54-12-5.54h-5.66c-1.72 0-3.11 1.4-3.11 3.11v27.8c0 1.63 1.27 2.99 2.9 3.11"/></g></svg>
