<!-- Copyright Clément Fontaine under CC BY-NC-SA 4.0 -->
<svg version="1.1" viewBox="0 0 512 512" class="ionicon" xmlns="http://www.w3.org/2000/svg"><title>Logo Plume</title><path d="m18.1 498c-6.28-3.48-6.67-13.4-1.18-29.7 3.26-9.7 6.8-16.4 26.7-50.7 22.8-39.2 23-39.7 29.9-58.8 34.1-94.9 70.9-160 123-216 22-24 63.9-57.9 71.6-57.9 3.42 0 7.69 3.76 7.69 6.78 0 1.5 2.33-0.419 9.2-7.58 11.8-12.3 22.7-20 40.8-28.9 23.3-11.5 56.7-21.7 98.4-30.1 23.7-4.78 61.8-11.1 66.9-11.1 5.43 0 8.09 2.48 8.09 7.56 0 3.26-0.764 4.42-6.89 10.4-12.5 12.3-16.3 19.2-31 55.8-11.2 27.9-19.8 45.4-28.8 58.6-5.13 7.53-5.85 9.06-4.47 9.57 3.97 1.49 5.34 4.43 4.77 10.3-2.6 26.9-32.7 71.4-74.3 110-67.1 61.9-154 111-219 125-6.68 1.42-12.9 2.87-13.7 3.23-0.872 0.36-15.9 16.2-33.3 35.1-35.4 38.4-45.3 48.3-55.7 55.4-6.08 4.13-7.79 4.84-11.7 4.81-2.49-0.016-5.58-0.614-6.86-1.32z"/></svg>
