<!-- Copyright Clément Fontaine under CC BY-NC-SA 4.0 -->
<svg class="ionicon" version="1.1" viewBox="0 0 512 512" xmlns="http://www.w3.org/2000/svg"><title>Northern Lights Winter</title><path d="m155 138c0-30.6 4.51-61.6 16-88-76.4 33.3-128 111-128 200 0 119 96.7 216 216 216 88.7 0 167-51.6 200-128-26.4 11.5-57.4 16-88 16-119 0-216-96.7-216-216z" fill="none" stroke="currentColor" stroke-linecap="round" stroke-linejoin="round" stroke-width="32"/><path transform="translate(11.3 -23.4)" d="m378 159c3.19 17.1-10.4 32.2-26.7 35-23.3 4.05-43.9-14.6-47.5-37-5.07-31.3 20.1-58.8 50.1-63.4 41.4-6.27 77.5 27 83.1 66.8 7.65 53.9-35.8 101-87.7 108-32.9 4.39-66.5-6.41-91.7-27.7" fill="none" stroke="#000" stroke-linecap="round" stroke-linejoin="round" stroke-width="32"/></svg>
