<svg class="ionicon" version="1.1" viewBox="0 0 512 512" xmlns="http://www.w3.org/2000/svg"><title>Sunny Winter Outline</title><g fill="none" stroke="currentColor" stroke-linecap="round" stroke-width="32"><path d="m256 48v48m147 12.9-33.9 33.9m94.9 113h-48" stroke-miterlimit="10"/><path transform="rotate(225)" d="m-280-2.56c0 28.6-15.2 55-40 69.3-24.8 14.3-55.2 14.3-80-2e-6 -24.8-14.3-40-40.7-40-69.3" stroke-miterlimit="10"/><path d="m253 258-58.2 216m-43.3-61.3c39.8-11.4 82.7 0.164 111 30m-10-185-216 57.7m31.5-68.2c29.8 28.8 41.2 71.7 29.7 112m-3.05-260 316 317m-323-242c20.1-5 38-15.3 52.2-29.5m226 227c-14.1 14.1-24.5 32-29.5 52.1" stroke-linejoin="round"/></g></svg>
