<?xml version="1.0" encoding="UTF-8" standalone="no"?>
<svg
   xmlns:dc="http://purl.org/dc/elements/1.1/"
   xmlns:cc="http://creativecommons.org/ns#"
   xmlns:rdf="http://www.w3.org/1999/02/22-rdf-syntax-ns#"
   xmlns:svg="http://www.w3.org/2000/svg"
   xmlns="http://www.w3.org/2000/svg"
   xmlns:sodipodi="http://sodipodi.sourceforge.net/DTD/sodipodi-0.dtd"
   xmlns:inkscape="http://www.inkscape.org/namespaces/inkscape"
   id="Layer_3"
   enable-background="new 0 0 64 64"
   height="512"
   viewBox="0 0 64 64"
   width="512"
   version="1.1"
   sodipodi:docname="surang-backpacker-outline.svg"
   inkscape:version="1.0.2-2 (e86c870879, 2021-01-15)">
  <metadata
     id="metadata37">
    <rdf:RDF>
      <cc:Work
         rdf:about="">
        <dc:format>image/svg+xml</dc:format>
        <dc:type
           rdf:resource="http://purl.org/dc/dcmitype/StillImage" />
        <dc:title></dc:title>
      </cc:Work>
    </rdf:RDF>
  </metadata>
  <defs
     id="defs35" />
  <sodipodi:namedview
     pagecolor="#ffffff"
     bordercolor="#666666"
     borderopacity="1"
     objecttolerance="10"
     gridtolerance="10"
     guidetolerance="10"
     inkscape:pageopacity="0"
     inkscape:pageshadow="2"
     inkscape:window-width="1920"
     inkscape:window-height="1001"
     id="namedview33"
     showgrid="false"
     inkscape:zoom="1.1462864"
     inkscape:cx="263.20889"
     inkscape:cy="282.62544"
     inkscape:window-x="-9"
     inkscape:window-y="-9"
     inkscape:window-maximized="1"
     inkscape:current-layer="Layer_3" />
  <path
     d="m40 39h-16c-1.105 0-2-.895-2-2v-19c0-1.105.895-2 2-2h16c1.105 0 2 .895 2 2v19c0 1.105-.895 2-2 2z"
     fill="#48a187"
     id="path2"
     style="stroke:#000000;stroke-opacity:1;stroke-width:1.5;stroke-miterlimit:4;stroke-dasharray:none;stroke-linejoin:round;stroke-linecap:round" />
  <path
     d="m30 19h-6l-5 5 7 2v10h12v-10l7-2-5-5h-6"
     fill="#f8ec8f"
     id="path4"
     style="stroke:#000000;stroke-opacity:1;stroke-width:1.5;stroke-miterlimit:4;stroke-dasharray:none;stroke-linejoin:round;stroke-linecap:round" />
  <path
     d="m19 24-1.56 2.339c-.287.431-.44.937-.44 1.455 0 .765.334 1.493.916 1.991l6.084 5.215 3-3-5-4 1.76-2.64"
     fill="#f8d4bf"
     id="path6"
     style="stroke:#000000;stroke-opacity:1;stroke-width:1.5;stroke-miterlimit:4;stroke-dasharray:none;stroke-linejoin:round;stroke-linecap:round" />
  <path
     d="m45 24 1.56 2.339c.287.431.44.937.44 1.455 0 .765-.334 1.493-.916 1.991l-6.084 5.215-3-3 5-4-1.76-2.64"
     fill="#f8d4bf"
     id="path8"
     style="stroke:#000000;stroke-opacity:1;stroke-width:1.5;stroke-miterlimit:4;stroke-dasharray:none;stroke-linejoin:round;stroke-linecap:round" />
  <path
     d="m30 56v6h-10v-2c0-1.105.895-2 2-2h4v-2"
     fill="#db8c74"
     id="path10"
     style="stroke:#000000;stroke-opacity:1;stroke-width:1.5;stroke-miterlimit:4;stroke-dasharray:none;stroke-linejoin:round;stroke-linecap:round" />
  <path
     d="m34 56v6h10v-2c0-1.105-.895-2-2-2h-4v-2"
     fill="#db8c74"
     id="path12"
     style="stroke:#000000;stroke-opacity:1;stroke-width:1.5;stroke-miterlimit:4;stroke-dasharray:none;stroke-linejoin:round;stroke-linecap:round" />
  <path
     d="m38 36v20h-4l-2-16-2 16h-4v-20"
     fill="#c8af8f"
     id="path14"
     style="stroke:#000000;stroke-opacity:1;stroke-width:1.5;stroke-miterlimit:4;stroke-dasharray:none;stroke-linejoin:round;stroke-linecap:round" />
  <path
     d="m29 17 3 5 3-5"
     fill="#f6c0a1"
     id="path16"
     style="stroke:#000000;stroke-opacity:1;stroke-width:1.5;stroke-miterlimit:4;stroke-dasharray:none;stroke-linejoin:round;stroke-linecap:round" />
  <path
     d="m37 19 2.063 11.349-2.063 1.651-3.929-11.786.729-1.214z"
     fill="#62d7c3"
     id="path18"
     style="stroke:#000000;stroke-opacity:1;stroke-width:1.5;stroke-miterlimit:4;stroke-dasharray:none;stroke-linejoin:round;stroke-linecap:round" />
  <path
     d="m27 19-2.063 11.349 2.063 1.651 3.929-11.786-.729-1.214z"
     fill="#62d7c3"
     id="path20"
     style="stroke:#000000;stroke-opacity:1;stroke-width:1.5;stroke-miterlimit:4;stroke-dasharray:none;stroke-linejoin:round;stroke-linecap:round" />
  <path
     d="m27 32 3 2-3 3-3-2"
     fill="#f6c0a1"
     id="path22"
     style="stroke:#000000;stroke-opacity:1;stroke-width:1.5;stroke-miterlimit:4;stroke-dasharray:none;stroke-linejoin:round;stroke-linecap:round" />
  <path
     d="m37 32-3 2 3 3 3-2"
     fill="#f6c0a1"
     id="path24"
     style="stroke:#000000;stroke-opacity:1;stroke-width:1.5;stroke-miterlimit:4;stroke-dasharray:none;stroke-linejoin:round;stroke-linecap:round" />
  <path
     d="m44 17h-24c-.552 0-1-.448-1-1v-2c0-.552.448-1 1-1h24c.552 0 1 .448 1 1v2c0 .552-.448 1-1 1z"
     fill="#74a2d9"
     id="path26"
     style="stroke:#000000;stroke-opacity:1;stroke-width:1.5;stroke-miterlimit:4;stroke-dasharray:none;stroke-linejoin:round;stroke-linecap:round" />
  <path
     d="m26 12.472c-1.841-1.099-3-2.695-3-4.472 0-3.314 4.029-6 9-6s9 2.686 9 6c0 1.777-1.159 3.373-3 4.472"
     fill="#ca6b4a"
     id="path28"
     style="stroke:#000000;stroke-opacity:1;stroke-width:1.5;stroke-miterlimit:4;stroke-dasharray:none;stroke-linejoin:round;stroke-linecap:round" />
  <path
     d="m32 6c-.597 1.792-2.274 3-4.162 3h-1.838v3c0 3.314 2.686 6 6 6 3.314 0 6-2.686 6-6v-3h-1.838c-1.888 0-3.565-1.208-4.162-3z"
     fill="#f8d4bf"
     id="path30"
     style="stroke:#000000;stroke-opacity:1;stroke-width:1.5;stroke-miterlimit:4;stroke-dasharray:none;stroke-linejoin:round;stroke-linecap:round" />
</svg>
