<svg width="512" height="512" enable-background="new 0 0 64 64" version="1.1" viewBox="0 0 64 64" xmlns="http://www.w3.org/2000/svg"><g stroke="#000" stroke-linecap="round" stroke-linejoin="round" stroke-width="1.5"><path d="m40 39h-16c-1.1 0-2-0.895-2-2v-19c0-1.1 0.895-2 2-2h16c1.1 0 2 0.895 2 2v19c0 1.1-0.895 2-2 2z" fill="#48a187"/><path d="m30 19h-6l-5 5 7 2v10h12v-10l7-2-5-5h-6" fill="#f8ec8f"/><path d="m19 24-1.56 2.339c-.287.431-.44.937-.44 1.455 0 .765.334 1.493.916 1.991l6.084 5.215 3-3-5-4 1.76-2.64" fill="#f8d4bf"/><path d="m45 24 1.56 2.339c.287.431.44.937.44 1.455 0 .765-.334 1.493-.916 1.991l-6.084 5.215-3-3 5-4-1.76-2.64" fill="#f8d4bf"/><path d="m30 56v6h-10v-2c0-1.1 0.895-2 2-2h4v-2" fill="#db8c74"/><path d="m34 56v6h10v-2c0-1.1-0.895-2-2-2h-4v-2" fill="#db8c74"/><path d="m38 36v20h-4l-2-16-2 16h-4v-20" fill="#c8af8f"/><path d="m29 17 3 5 3-5" fill="#f6c0a1"/><path d="m37 19 2.06 11.3-2.06 1.65-3.93-11.8 0.729-1.21z" fill="#62d7c3"/><path d="m27 19-2.06 11.3 2.06 1.65 3.93-11.8-0.729-1.21z" fill="#62d7c3"/><path d="m27 32 3 2-3 3-3-2" fill="#f6c0a1"/><path d="m37 32-3 2 3 3 3-2" fill="#f6c0a1"/><path d="m44 17h-24c-.552 0-1-.448-1-1v-2c0-.552.448-1 1-1h24c.552 0 1 .448 1 1v2c0 .552-.448 1-1 1z" fill="#74a2d9"/><path d="m26 12.5c-1.84-1.1-3-2.7-3-4.47 0-3.31 4.03-6 9-6s9 2.69 9 6c0 1.78-1.16 3.37-3 4.47" fill="#ca6b4a"/><path d="m32 6c-0.597 1.79-2.27 3-4.16 3h-1.84v3c0 3.31 2.69 6 6 6s6-2.69 6-6v-3h-1.84c-1.89 0-3.56-1.21-4.16-3z" fill="#f8d4bf"/></g></svg>
