<svg width="512" height="512" enable-background="new 0 0 512 512" version="1.1" viewBox="0 0 527 527" xmlns="http://www.w3.org/2000/svg"><g stroke="#000" stroke-linecap="round" stroke-linejoin="round" stroke-width="12.4"><path d="m457 168 26.8 53.6c2.4 4.79-1.09 10.4-6.45 10.4h-148v-128h148c5.36 0 8.85 5.64 6.45 10.4z" fill="#fe646f"/><path d="m414 104v72.5l-55.5 55.5h-29.1v-128z" fill="#fd4755"/><path d="m393 168-64 64v-64z" fill="#fb2b3a"/><path d="m393 168h-129v-128h122c3.87 0 7 3.13 7 7v121z" fill="#fe646f"/><path d="m264 39.7h30.9v128h-30.9z" fill="#fd4755"/><path d="m254 7.68h1.16c10.7 0 19.4 8.69 19.4 19.4v493h-40v-493c0-10.7 8.69-19.4 19.4-19.4z" fill="#d8ecfe"/><path d="m265 10.5c-5.81 3.49-9.69 9.86-9.69 17.1v492h-20.6v-492c0-11 8.95-20 20-20 3.77 0 7.29 1.04 10.3 2.86z" fill="#b3dafe"/><path d="m234 296v26.4c0 11.9 9.68 21.6 21.6 21.6h61.9c11 1.04 17 7.1 18 18.2-0.097 9.94-8.52 17.8-18.5 17.8h-5.63c11 1.05 17 7.1 18 18.2-0.097 9.94-8.52 17.8-18.5 17.8h-5.51c11 1.05 17 7.1 18 18.2-0.1 9.94-8.51 17.8-18.5 17.8h-6.83c11 1.05 17 7.11 18 18.2-0.102 9.94-8.52 17.8-18.5 17.8h-112c-4.88 0-9.68-1.51-13.5-4.5-10.2-7.9-21-9.56-34.2-10.3v-114c20.4-29.6 38.9-9.11 54.9-38.7 13.1-24.2 27-24 41.6-24z" fill="#ffcebf"/><path d="m234 296v9.27c-3.64 3.45-7.21 8.19-10.7 14.7-16 29.6-34.5 9.1-54.9 38.7v114c13.1 0.783 23.9 2.45 34.2 10.4 3.86 2.98 8.66 4.49 13.5 4.49h-30.9c-4.88 0-9.68-1.51-13.5-4.49-10.2-7.9-21-9.57-34.2-10.4l-10.3-13.7v-88.4l10.3-12.3c20.4-29.6 38.9-9.12 54.9-38.7 13.1-24.2 27-24 41.6-24z" fill="#ffb09e"/><path d="m107 488h24.3c3.87 0 7-3.13 7-7v-130c0-3.87-3.13-7-7-7h-34.6v133z" fill="#eaf6ff"/><path d="m122 344v144h-15.4l-10.3-11.4v-133z" fill="#d8ecfe"/><path d="m49.5 326h50.2c3.87 0 7 3.13 7 7v155h-57.2c-3.87 0-7-3.13-7-7v-148c0-3.87 3.13-7 7-7z" fill="#8ac9fe"/><path d="m63.1 326v162h-13.6c-3.87 0-7-3.13-7-7v-148c0-3.87 3.13-7 7-7z" fill="#60b7ff"/><g transform="translate(7.68 7.68)"><path d="m66.9 391c-4.27 0-7.72-3.46-7.72-7.72v-31.4c0-4.27 3.46-7.72 7.72-7.72s7.72 3.46 7.72 7.72v31.4c1e-3 4.27-3.46 7.72-7.72 7.72z" fill="#68748f" stroke="#000" stroke-linecap="round" stroke-linejoin="round" stroke-width="12.4"/><g fill="#ffb09e"><path d="m298 380h-23.1c-4.27 0-7.73-3.46-7.73-7.73s3.46-7.73 7.73-7.73h23.1c4.27 0 7.73 3.46 7.73 7.73s-3.46 7.73-7.73 7.73z"/><path d="m298 416h-23.1c-4.27 0-7.73-3.46-7.73-7.73s3.46-7.73 7.73-7.73h23.1c4.27 0 7.73 3.46 7.73 7.73s-3.46 7.73-7.73 7.73z"/><path d="m298 451h-23.1c-4.27 0-7.73-3.46-7.73-7.73s3.46-7.73 7.73-7.73h23.1c4.27 0 7.73 3.46 7.73 7.73s-3.46 7.73-7.73 7.73z"/></g></g></g></svg>
