<?xml version="1.0" encoding="UTF-8" standalone="no"?>
<svg
   xmlns:dc="http://purl.org/dc/elements/1.1/"
   xmlns:cc="http://creativecommons.org/ns#"
   xmlns:rdf="http://www.w3.org/1999/02/22-rdf-syntax-ns#"
   xmlns:svg="http://www.w3.org/2000/svg"
   xmlns="http://www.w3.org/2000/svg"
   xmlns:sodipodi="http://sodipodi.sourceforge.net/DTD/sodipodi-0.dtd"
   xmlns:inkscape="http://www.inkscape.org/namespaces/inkscape"
   id="Capa_1"
   enable-background="new 0 0 512 512"
   height="512"
   viewBox="0 0 527.36 527.36"
   width="512"
   version="1.1"
   sodipodi:docname="freepik-goal-outline.svg"
   inkscape:version="1.0.2-2 (e86c870879, 2021-01-15)">
  <metadata
     id="metadata53">
    <rdf:RDF>
      <cc:Work
         rdf:about="">
        <dc:format>image/svg+xml</dc:format>
        <dc:type
           rdf:resource="http://purl.org/dc/dcmitype/StillImage" />
        <dc:title></dc:title>
      </cc:Work>
    </rdf:RDF>
  </metadata>
  <defs
     id="defs51" />
  <sodipodi:namedview
     pagecolor="#ffffff"
     bordercolor="#666666"
     borderopacity="1"
     objecttolerance="10"
     gridtolerance="10"
     guidetolerance="10"
     inkscape:pageopacity="0"
     inkscape:pageshadow="2"
     inkscape:window-width="1920"
     inkscape:window-height="1001"
     id="namedview49"
     showgrid="false"
     inkscape:zoom="1.1462864"
     inkscape:cx="249.84314"
     inkscape:cy="272.31508"
     inkscape:window-x="-9"
     inkscape:window-y="-9"
     inkscape:window-maximized="1"
     inkscape:current-layer="Capa_1"
     scale-x="1.03" />
  <path
     d="m 457.29625,167.639 26.782,53.555 c 2.397,4.794 -1.089,10.434 -6.448,10.434 h -148.303 V 103.659 h 148.302 c 5.36,0 8.846,5.641 6.448,10.435 z"
     fill="#fe646f"
     id="path2"
     style="stroke:#000000;stroke-opacity:1;stroke-width:12.36;stroke-miterlimit:4;stroke-dasharray:none;stroke-linejoin:round;stroke-linecap:round" />
  <path
     d="m 413.91525,103.659 v 72.518 l -55.462,55.451 h -29.126 V 103.659 Z"
     fill="#fd4755"
     id="path4"
     style="stroke:#000000;stroke-opacity:1;stroke-width:12.36;stroke-miterlimit:4;stroke-dasharray:none;stroke-linejoin:round;stroke-linecap:round" />
  <path
     d="m 393.31625,167.642 -63.984,63.984 v -63.984 z"
     fill="#fb2b3a"
     id="path6"
     style="stroke:#000000;stroke-opacity:1;stroke-width:12.36;stroke-miterlimit:4;stroke-dasharray:none;stroke-linejoin:round;stroke-linecap:round" />
  <path
     d="m 393.31625,167.642 h -129.173 V 39.674 h 122.172 c 3.866,0 7,3.134 7,7 v 120.968 z"
     fill="#fe646f"
     id="path8"
     style="stroke:#000000;stroke-opacity:1;stroke-width:12.36;stroke-miterlimit:4;stroke-dasharray:none;stroke-linejoin:round;stroke-linecap:round" />
  <path
     d="m 264.14225,39.67 h 30.898 v 127.969 h -30.898 z"
     fill="#fd4755"
     id="path10"
     style="stroke:#000000;stroke-opacity:1;stroke-width:12.36;stroke-miterlimit:4;stroke-dasharray:none;stroke-linejoin:round;stroke-linecap:round" />
  <path
     d="m 253.87325,7.682 h 1.162 c 10.719,0 19.408,8.689 19.408,19.408 v 492.588 h -39.978 V 27.09 c 0,-10.719 8.689,-19.408 19.408,-19.408 z"
     fill="#d8ecfe"
     id="path12"
     style="stroke:#000000;stroke-opacity:1;stroke-width:12.36;stroke-miterlimit:4;stroke-dasharray:none;stroke-linejoin:round;stroke-linecap:round" />
  <path
     d="m 264.75025,10.543 c -5.809,3.491 -9.692,9.857 -9.692,17.128 V 519.68 h -20.598 V 27.671 c 0,-11.041 8.95,-19.991 19.991,-19.991 3.769,0 7.292,1.04 10.299,2.863 z"
     fill="#b3dafe"
     id="path14"
     style="stroke:#000000;stroke-opacity:1;stroke-width:12.36;stroke-miterlimit:4;stroke-dasharray:none;stroke-linejoin:round;stroke-linecap:round" />
  <path
     d="m 234.46525,295.734 v 26.374 c 0,11.945 9.683,21.629 21.629,21.629 h 61.887 c 11.04,1.042 17.041,7.099 18.002,18.171 -0.097,9.945 -8.517,17.815 -18.462,17.815 h -5.627 c 11.034,1.046 17.031,7.103 17.992,18.171 -0.097,9.945 -8.517,17.815 -18.462,17.815 h -5.514 c 11.036,1.046 17.034,7.105 17.992,18.178 -0.1,9.941 -8.511,17.808 -18.452,17.808 h -6.832 c 11.038,1.046 17.035,7.107 17.992,18.182 -0.102,9.945 -8.518,17.814 -18.463,17.814 h -112.468 c -4.88,0 -9.679,-1.51 -13.54,-4.495 -10.217,-7.9 -21.019,-9.56 -34.16,-10.346 V 358.425 c 20.363,-29.624 38.869,-9.112 54.865,-38.722 13.093,-24.236 26.966,-23.969 41.621,-23.969 z"
     fill="#ffcebf"
     id="path16"
     style="stroke:#000000;stroke-opacity:1;stroke-width:12.36;stroke-miterlimit:4;stroke-dasharray:none;stroke-linejoin:round;stroke-linecap:round" />
  <path
     d="M 234.46025,295.731 V 305 c -3.636,3.45 -7.21,8.188 -10.722,14.697 -15.995,29.611 -34.503,9.105 -54.864,38.726 v 114.425 c 13.142,0.783 23.946,2.451 34.163,10.351 3.862,2.976 8.662,4.491 13.544,4.491 h -30.898 c -4.882,0 -9.681,-1.514 -13.544,-4.491 -10.217,-7.9 -21.021,-9.568 -34.163,-10.351 l -10.299,-13.731 v -88.386 l 10.299,-12.308 c 20.362,-29.621 38.87,-9.115 54.864,-38.726 13.101,-24.233 26.974,-23.966 41.62,-23.966 z"
     fill="#ffb09e"
     id="path18"
     style="stroke:#000000;stroke-opacity:1;stroke-width:12.36;stroke-miterlimit:4;stroke-dasharray:none;stroke-linejoin:round;stroke-linecap:round" />
  <path
     d="m 106.69025,487.686 h 24.286 c 3.866,0 7,-3.134 7,-7 V 350.684 c 0,-3.866 -3.134,-7 -7,-7 H 96.391246 v 133.13 z"
     fill="#eaf6ff"
     id="path20"
     style="stroke:#000000;stroke-opacity:1;stroke-width:12.36;stroke-miterlimit:4;stroke-dasharray:none;stroke-linejoin:round;stroke-linecap:round" />
  <path
     d="M 122.13525,343.685 V 487.69 h -15.449 L 96.387246,476.299 V 343.685 Z"
     fill="#d8ecfe"
     id="path22"
     style="stroke:#000000;stroke-opacity:1;stroke-width:12.36;stroke-miterlimit:4;stroke-dasharray:none;stroke-linejoin:round;stroke-linecap:round" />
  <path
     d="m 49.513246,325.683 h 50.177 c 3.866004,0 7.000004,3.134 7.000004,7 V 487.686 H 49.513246 c -3.866,0 -7,-3.134 -7,-7 V 332.683 c 0,-3.866 3.134,-7 7,-7 z"
     fill="#8ac9fe"
     id="path24"
     style="stroke:#000000;stroke-opacity:1;stroke-width:12.36;stroke-miterlimit:4;stroke-dasharray:none;stroke-linejoin:round;stroke-linecap:round" />
  <path
     d="M 63.110246,325.682 V 487.69 h -13.599 c -3.866,0 -7,-3.134 -7,-7 V 332.682 c 0,-3.866 3.134,-7 7,-7 z"
     fill="#60b7ff"
     id="path26"
     style="stroke:#000000;stroke-opacity:1;stroke-width:12.36;stroke-miterlimit:4;stroke-dasharray:none;stroke-linejoin:round;stroke-linecap:round" />
  <g
     id="g32"
     transform="translate(7.6802461,7.68)"
     style="stroke:#000000;stroke-opacity:1;stroke-width:12.36;stroke-miterlimit:4;stroke-dasharray:none;stroke-linejoin:round;stroke-linecap:round">
    <g
       id="g30"
       style="stroke:#000000;stroke-opacity:1;stroke-width:12.36;stroke-miterlimit:4;stroke-dasharray:none;stroke-linejoin:round;stroke-linecap:round">
      <path
         d="m 66.921,391.252 c -4.266,0 -7.724,-3.458 -7.724,-7.724 v -31.431 c 0,-4.267 3.458,-7.724 7.724,-7.724 4.266,0 7.724,3.458 7.724,7.724 v 31.431 c 0.001,4.266 -3.458,7.724 -7.724,7.724 z"
         fill="#68748f"
         id="path28"
         style="stroke:#000000;stroke-opacity:1;stroke-width:12.36;stroke-miterlimit:4;stroke-dasharray:none;stroke-linejoin:round;stroke-linecap:round" />
    </g>
  </g>
  <g
     id="g36"
     transform="translate(7.6802461,7.68)"
     style="stroke:#000000;stroke-opacity:1;stroke-width:12.36;stroke-miterlimit:4;stroke-dasharray:none;stroke-linejoin:round;stroke-linecap:round">
    <path
       d="m 297.547,379.833 h -23.058 c -4.268,0 -7.726,-3.459 -7.726,-7.726 0,-4.267 3.459,-7.726 7.726,-7.726 h 23.058 c 4.268,0 7.726,3.459 7.726,7.726 0,4.267 -3.459,7.726 -7.726,7.726 z"
       fill="#ffb09e"
       id="path34"
       style="stroke:#000000;stroke-opacity:1;stroke-width:12.36;stroke-miterlimit:4;stroke-dasharray:none;stroke-linejoin:round;stroke-linecap:round" />
  </g>
  <g
     id="g40"
     transform="translate(7.6802461,7.68)"
     style="stroke:#000000;stroke-opacity:1;stroke-width:12.36;stroke-miterlimit:4;stroke-dasharray:none;stroke-linejoin:round;stroke-linecap:round">
    <path
       d="m 297.547,416.286 h -23.058 c -4.268,0 -7.726,-3.459 -7.726,-7.726 0,-4.267 3.459,-7.726 7.726,-7.726 h 23.058 c 4.268,0 7.726,3.459 7.726,7.726 0,4.267 -3.459,7.726 -7.726,7.726 z"
       fill="#ffb09e"
       id="path38"
       style="stroke:#000000;stroke-opacity:1;stroke-width:12.36;stroke-miterlimit:4;stroke-dasharray:none;stroke-linejoin:round;stroke-linecap:round" />
  </g>
  <g
     id="g44"
     transform="translate(7.6802461,7.68)"
     style="stroke:#000000;stroke-opacity:1;stroke-width:12.36;stroke-miterlimit:4;stroke-dasharray:none;stroke-linejoin:round;stroke-linecap:round">
    <path
       d="m 297.547,451.06 h -23.058 c -4.268,0 -7.726,-3.459 -7.726,-7.726 0,-4.267 3.459,-7.726 7.726,-7.726 h 23.058 c 4.268,0 7.726,3.459 7.726,7.726 0,4.267 -3.459,7.726 -7.726,7.726 z"
       fill="#ffb09e"
       id="path42"
       style="stroke:#000000;stroke-opacity:1;stroke-width:12.36;stroke-miterlimit:4;stroke-dasharray:none;stroke-linejoin:round;stroke-linecap:round" />
  </g>
</svg>
