<?xml version="1.0" encoding="UTF-8"?>
<svg enable-background="new 0 0 512.013 512.013" version="1.1" viewBox="0 0 512 512" xml:space="preserve" xmlns="http://www.w3.org/2000/svg">
		<circle cx="42.68" cy="224" r="42.67"/>
		<path d="m341.3 202.7c-5.888 0-10.67 4.779-10.67 10.67s4.779 10.67 10.67 10.67c87.51 0 149.3 80.04 149.3 96 0 5.888 4.779 10.67 10.67 10.67s10.67-4.779 10.67-10.67c0-33.07-75.69-117.3-170.7-117.3z"/>
		<path d="m501.3 309.3h-96.26c-14.25 0-26.56-9.173-30.68-22.8l-23.55-77.97-21.33-42.67c-1.792-3.605-5.483-5.888-9.515-5.888h-32c-2.837 0-5.547 1.131-7.552 3.115l-39.53 39.55h-166.2c-5.888 0-10.67 4.779-10.67 10.67v21.33c0 5.205 3.776 9.664 8.917 10.52 39.08 6.528 105.6 22.55 120.9 38.27l0.683 1.323c20.16 39.47 45.27 88.56 93.5 88.56h149.3c42.56 0 74.67-22.93 74.67-53.33 0-5.89-4.779-10.67-10.67-10.67z"/>
		<path d="m63.22 188.5-21.33-42.67c-2.517-5.035-8.576-7.232-13.78-4.971l-21.65 9.323c-5.077 2.197-7.659 7.915-5.909 13.16l10.67 32c1.899 5.589 7.957 8.597 13.5 6.741 4.331-1.429 7.04-5.376 7.211-9.685l9.557 0.384 2.645 5.269c1.877 3.733 5.653 5.888 9.536 5.888 1.6 0 3.221-0.363 4.779-1.131 5.268-2.645 7.401-9.045 4.778-14.31z"/>
		<path d="m58.12 246.5c-5.248-2.581-11.67-0.491-14.32 4.779l-1.344 2.645c-0.981-4.885-5.291-8.555-10.45-8.555-5.888 0-10.67 4.779-10.67 10.67v21.33c0 5.888 4.779 10.67 10.67 10.67h10.67c4.032 0 7.723-2.283 9.536-5.888l10.67-21.33c2.623-5.269 0.511-11.69-4.758-14.32z"/>
		<path d="m309.3 96.01c-5.888 0-10.67 4.779-10.67 10.67v10.67c0 5.888 4.779 10.67 10.67 10.67s10.67-4.779 10.67-10.67v-10.67c0-5.888-4.779-10.67-10.67-10.67z"/>
		<path d="m501.3 117.3h-192c-5.888 0-10.67 4.779-10.67 10.67s4.779 10.67 10.67 10.67h192c5.888 0 10.67-4.779 10.67-10.67s-4.779-10.67-10.67-10.67z"/>
		<path d="m309.3 117.3h-192c-5.888 0-10.67 4.779-10.67 10.67s4.779 10.67 10.67 10.67h192c5.888 0 10.67-4.779 10.67-10.67s-4.779-10.67-10.67-10.67z"/>
		<path d="m352 352c-5.888 0-10.67 4.779-10.67 10.67v42.67c0 5.888 4.779 10.67 10.67 10.67s10.67-4.779 10.67-10.67v-42.67c0-5.888-4.779-10.67-10.67-10.67z"/>
		<path d="m437.3 352c-5.888 0-10.67 4.779-10.67 10.67v42.67c0 5.888 4.779 10.67 10.67 10.67s10.67-4.779 10.67-10.67v-42.67c0-5.888-4.779-10.67-10.67-10.67z"/>
		<path d="m506.6 374.7c-5.141-2.88-11.65-1.045-14.53 4.096-5.056 9.024-25.66 14.66-33.34 15.87h-213.3c-5.888 0-10.67 4.779-10.67 10.67s4.779 10.67 10.67 10.67l214.8-0.107c3.947-0.555 38.91-5.995 50.5-26.69 2.88-5.142 1.046-11.63-4.095-14.51z"/>
</svg>
