<?xml version="1.0" encoding="UTF-8" standalone="no"?>
<svg
   xmlns:dc="http://purl.org/dc/elements/1.1/"
   xmlns:cc="http://creativecommons.org/ns#"
   xmlns:rdf="http://www.w3.org/1999/02/22-rdf-syntax-ns#"
   xmlns:svg="http://www.w3.org/2000/svg"
   xmlns="http://www.w3.org/2000/svg"
   xmlns:sodipodi="http://sodipodi.sourceforge.net/DTD/sodipodi-0.dtd"
   xmlns:inkscape="http://www.inkscape.org/namespaces/inkscape"
   height="512"
   viewBox="0 0 128 128"
   width="512"
   version="1.1"
   id="svg26"
   sodipodi:docname="good-ware-house-outline.svg"
   inkscape:version="1.0.2-2 (e86c870879, 2021-01-15)">
  <metadata
     id="metadata32">
    <rdf:RDF>
      <cc:Work
         rdf:about="">
        <dc:format>image/svg+xml</dc:format>
        <dc:type
           rdf:resource="http://purl.org/dc/dcmitype/StillImage" />
        <dc:title></dc:title>
      </cc:Work>
    </rdf:RDF>
  </metadata>
  <defs
     id="defs30" />
  <sodipodi:namedview
     pagecolor="#ffffff"
     bordercolor="#666666"
     borderopacity="1"
     objecttolerance="10"
     gridtolerance="10"
     guidetolerance="10"
     inkscape:pageopacity="0"
     inkscape:pageshadow="2"
     inkscape:window-width="1920"
     inkscape:window-height="1001"
     id="namedview28"
     showgrid="false"
     inkscape:zoom="1.6210938"
     inkscape:cx="256"
     inkscape:cy="256"
     inkscape:window-x="-9"
     inkscape:window-y="-9"
     inkscape:window-maximized="1"
     inkscape:current-layer="svg26" />
  <path
     d="M 122.25,107.191 H 5.75 a 4,4 0 0 0 -4,4 v 7.185 h 124.5 v -7.185 a 4,4 0 0 0 -4,-4 z"
     fill="#b9dd39"
     id="path2"
     style="stroke:#000000;stroke-opacity:1;stroke-linejoin:round;stroke-linecap:round;stroke-width:3;stroke-miterlimit:4;stroke-dasharray:none" />
  <path
     d="M 115.859,60.128 H 105.427 L 64,29.361 22.573,60.128 H 12.141 a 4,4 0 0 1 -4,-4 4,4 0 0 1 4,-4 h 7.786 L 64,19.4 108.073,52.132 h 7.786 a 4,4 0 0 1 4,4 4,4 0 0 1 -4,3.996 z"
     fill="#5b5555"
     id="path4"
     style="stroke:#000000;stroke-opacity:1;stroke-linejoin:round;stroke-linecap:round;stroke-width:3;stroke-miterlimit:4;stroke-dasharray:none" />
  <path
     d="M 19.927,52.128 64,19.396 108.073,52.128 h 5.052 L 103.117,9.624 H 24.883 L 14.875,52.128 Z"
     fill="#fabe2c"
     id="path6"
     style="stroke:#000000;stroke-opacity:1;stroke-linejoin:round;stroke-linecap:round;stroke-width:3;stroke-miterlimit:4;stroke-dasharray:none" />
  <path
     d="M 105.427,60.128 64,29.361 22.573,60.128 h -7.698 v 47.063 h 98.25 V 60.128 Z"
     fill="#fff5f5"
     id="path8"
     style="stroke:#000000;stroke-opacity:1;stroke-linejoin:round;stroke-linecap:round;stroke-width:3;stroke-miterlimit:4;stroke-dasharray:none" />
  <path
     d="m 50.875,72.691 h 26.25 v 34.5 h -26.25 z"
     fill="#c86e59"
     id="path10"
     style="stroke:#000000;stroke-opacity:1;stroke-linejoin:round;stroke-linecap:round;stroke-width:3;stroke-miterlimit:4;stroke-dasharray:none" />
  <path
     d="m 70.438,92.91 a 1.75,1.75 0 0 1 -1.75,-1.75 v -5.532 a 1.75,1.75 0 0 1 3.5,0 v 5.532 a 1.751,1.751 0 0 1 -1.75,1.75 z"
     fill="#a34f3e"
     id="path12"
     style="stroke:#000000;stroke-opacity:1;stroke-linejoin:round;stroke-linecap:round;stroke-width:3;stroke-miterlimit:4;stroke-dasharray:none" />
  <path
     d="m 86.563,72.691 h 17.906 V 91.816 H 86.563 Z"
     fill="#efe2dd"
     id="path14"
     style="stroke:#000000;stroke-opacity:1;stroke-linejoin:round;stroke-linecap:round;stroke-width:3;stroke-miterlimit:4;stroke-dasharray:none" />
  <path
     d="M 41.438,91.816 H 23.532 V 72.691 h 17.906 z"
     fill="#efe2dd"
     id="path16"
     style="stroke:#000000;stroke-opacity:1;stroke-linejoin:round;stroke-linecap:round;stroke-width:3;stroke-miterlimit:4;stroke-dasharray:none" />
  <circle
     cx="64"
     cy="52.251999"
     fill="#fabe2c"
     r="7.375"
     id="circle22"
     style="stroke:#000000;stroke-opacity:1;stroke-linejoin:round;stroke-linecap:round;stroke-width:3;stroke-miterlimit:4;stroke-dasharray:none" />
</svg>
