<svg width="512" height="512" version="1.1" viewBox="0 0 128 128" xmlns="http://www.w3.org/2000/svg"><g stroke="#000" stroke-linecap="round" stroke-linejoin="round" stroke-width="3"><path d="m122 107h-116a4 4 0 0 0-4 4v7.18h124v-7.18a4 4 0 0 0-4-4z" fill="#b9dd39"/><path d="m116 60.1h-10.4l-41.4-30.8-41.4 30.8h-10.4a4 4 0 0 1-4-4 4 4 0 0 1 4-4h7.79l44.1-32.7 44.1 32.7h7.79a4 4 0 0 1 4 4 4 4 0 0 1-4 4z" fill="#5b5555"/><path d="m19.9 52.1 44.1-32.7 44.1 32.7h5.05l-10-42.5h-78.2l-10 42.5z" fill="#fabe2c"/><path d="m105 60.1-41.4-30.8-41.4 30.8h-7.7v47.1h98.2v-47.1z" fill="#fff5f5"/><path d="m50.9 72.7h26.2v34.5h-26.2z" fill="#c86e59"/><path d="m70.4 92.9a1.75 1.75 0 0 1-1.75-1.75v-5.53a1.75 1.75 0 0 1 3.5 0v5.53a1.75 1.75 0 0 1-1.75 1.75z" fill="#a34f3e"/><path d="m86.6 72.7h17.9v19.1h-17.9z" fill="#efe2dd"/><path d="m41.4 91.8h-17.9v-19.1h17.9z" fill="#efe2dd"/><circle cx="64" cy="52.3" r="7.38" fill="#fabe2c"/></g></svg>
