<svg width="512" height="512" enable-background="new 0 0 24 24" version="1.1" viewBox="0 0 25.1 25.1" xmlns="http://www.w3.org/2000/svg"><g transform="translate(.545 .544)" stroke="#000" stroke-width=".588"><g stroke="#000" stroke-width=".588"><path d="m15.2 5h-5.75c-0.414 0-0.75-0.336-0.75-0.75v-3.5c0-0.414 0.336-0.75 0.75-0.75h5.75c0.293 0 0.559 0.17 0.681 0.437 0.123 0.266 0.079 0.579-0.112 0.802l-1.08 1.26 1.08 1.26c0.191 0.223 0.234 0.536 0.112 0.802-0.123 0.266-0.389 0.436-0.682 0.436z" fill="#f44336"/><path d="m9.5 8c-0.414 0-0.75-0.336-0.75-0.75v-6.5c0-0.414 0.336-0.75 0.75-0.75s0.75 0.336 0.75 0.75v6.5c0 0.414-0.336 0.75-0.75 0.75z" fill="#607d8b"/><path d="m13.6 13-2.13 1.8c-0.14 0.12-0.31 0.18-0.48 0.18-0.19 0-0.38-0.07-0.53-0.22l-0.97-0.97-0.97 0.97c-0.28 0.28-0.72 0.29-1.01 0.04l-2.07-1.74 0.74-1.34 2.65-4.85c0.13-0.24 0.38-0.39 0.66-0.39 0.25-0.03 0.52 0.14 0.65 0.38l2.71 4.81z" fill="#eceff1"/><path d="m9.5 0c-0.414 0-0.75 0.336-0.75 0.75v6.3l0.09-0.165c0.13-0.24 0.38-0.39 0.66-0.39z" fill="#546d79"/><path d="m9.5 6.5c-0.28 0-0.53 0.15-0.66 0.39l-0.09 0.165-2.56 4.68-0.74 1.34 2.07 1.74c0.138 0.119 0.311 0.179 0.483 0.179 0.19 0 0.38-0.072 0.527-0.219l0.97-0.97z" fill="#cdd0d2"/><path d="m23.2 24h-10.1c-0.261 0-0.503-0.136-0.64-0.358-0.136-0.222-0.147-0.5-0.028-0.732l4.84-9.5c0.126-0.247 0.378-0.404 0.655-0.409 0.316 0.022 0.536 0.145 0.669 0.387l5.25 9.5c0.128 0.232 0.125 0.515-0.01 0.744-0.135 0.228-0.38 0.368-0.646 0.368z" fill="#1976d2"/><path d="m18 13c-0.277 5e-3 -0.529 0.162-0.655 0.409l-4.84 9.5c-0.119 0.233-0.108 0.51 0.028 0.732 0.137 0.223 0.379 0.359 0.64 0.359h4.84v-11c-4e-3 0-8e-3 -1e-3 -0.013-1e-3z" fill="#1667b7"/><path d="m19.2 22.9-5.54-9.86-2.13 1.8c-0.14 0.12-0.31 0.18-0.48 0.18-0.19 0-0.38-0.07-0.53-0.22l-0.97-0.97-0.97 0.97c-0.28 0.28-0.72 0.29-1.01 0.04l-2.07-1.74-5.36 9.81c-0.13 0.23-0.12 0.51 0.01 0.74 0.14 0.23 0.39 0.37 0.65 0.37h17.8c0.27 0 0.51-0.14 0.65-0.37 0.13-0.23 0.13-0.52 0-0.75z" fill="#2196f3"/><path d="m5.45 13.1-5.36 9.81c-0.13 0.23-0.12 0.51 0.01 0.74 0.14 0.23 0.39 0.37 0.65 0.37h8.75v-10.2l-0.97 0.97c-0.147 0.146-0.337 0.219-0.527 0.219-0.173 0-0.345-0.06-0.483-0.179z" fill="#1d83d4"/></g></g></svg>
