<?xml version="1.0" encoding="UTF-8" standalone="no"?>
<svg
   xmlns:dc="http://purl.org/dc/elements/1.1/"
   xmlns:cc="http://creativecommons.org/ns#"
   xmlns:rdf="http://www.w3.org/1999/02/22-rdf-syntax-ns#"
   xmlns:svg="http://www.w3.org/2000/svg"
   xmlns="http://www.w3.org/2000/svg"
   xmlns:sodipodi="http://sodipodi.sourceforge.net/DTD/sodipodi-0.dtd"
   xmlns:inkscape="http://www.inkscape.org/namespaces/inkscape"
   id="color"
   enable-background="new 0 0 24 24"
   height="512"
   viewBox="0 0 25.088 25.088"
   width="512"
   version="1.1"
   sodipodi:docname="pixel-perfect-mission-outline.svg"
   inkscape:version="1.0.2-2 (e86c870879, 2021-01-15)">
  <metadata
     id="metadata61">
    <rdf:RDF>
      <cc:Work
         rdf:about="">
        <dc:format>image/svg+xml</dc:format>
        <dc:type
           rdf:resource="http://purl.org/dc/dcmitype/StillImage" />
        <dc:title></dc:title>
      </cc:Work>
    </rdf:RDF>
  </metadata>
  <defs
     id="defs59" />
  <sodipodi:namedview
     pagecolor="#ffffff"
     bordercolor="#666666"
     borderopacity="1"
     objecttolerance="10"
     gridtolerance="10"
     guidetolerance="10"
     inkscape:pageopacity="0"
     inkscape:pageshadow="2"
     inkscape:window-width="1920"
     inkscape:window-height="1001"
     id="namedview57"
     showgrid="false"
     inkscape:zoom="1.1462864"
     inkscape:cx="240.92462"
     inkscape:cy="266.36587"
     inkscape:window-x="-9"
     inkscape:window-y="-9"
     inkscape:window-maximized="1"
     inkscape:current-layer="color"
     scale-x="0.049" />
  <g
     id="g6"
     transform="translate(0.54547942,0.544)"
     style="stroke:#000000;stroke-opacity:1;stroke-width:0.588;stroke-miterlimit:4;stroke-dasharray:none">
    <g
       id="g4"
       style="stroke:#000000;stroke-opacity:1;stroke-width:0.588;stroke-miterlimit:4;stroke-dasharray:none">
      <path
         d="M 15.25,5 H 9.5 C 9.086,5 8.75,4.664 8.75,4.25 V 0.75 C 8.75,0.336 9.086,0 9.5,0 h 5.75 c 0.293,0 0.559,0.17 0.681,0.437 0.123,0.266 0.079,0.579 -0.112,0.802 L 14.738,2.5 15.82,3.762 c 0.191,0.223 0.234,0.536 0.112,0.802 C 15.809,4.83 15.543,5 15.25,5 Z"
         fill="#f44336"
         id="path2"
         style="stroke:#000000;stroke-opacity:1;stroke-width:0.588;stroke-miterlimit:4;stroke-dasharray:none" />
    </g>
  </g>
  <g
     id="g12"
     transform="translate(0.54547942,0.544)"
     style="stroke:#000000;stroke-opacity:1;stroke-width:0.588;stroke-miterlimit:4;stroke-dasharray:none">
    <g
       id="g10"
       style="stroke:#000000;stroke-opacity:1;stroke-width:0.588;stroke-miterlimit:4;stroke-dasharray:none">
      <path
         d="M 9.5,8 C 9.086,8 8.75,7.664 8.75,7.25 V 0.75 C 8.75,0.336 9.086,0 9.5,0 c 0.414,0 0.75,0.336 0.75,0.75 v 6.5 C 10.25,7.664 9.914,8 9.5,8 Z"
         fill="#607d8b"
         id="path8"
         style="stroke:#000000;stroke-opacity:1;stroke-width:0.588;stroke-miterlimit:4;stroke-dasharray:none" />
    </g>
  </g>
  <g
     id="g18"
     transform="translate(0.54547942,0.544)"
     style="stroke:#000000;stroke-opacity:1;stroke-width:0.588;stroke-miterlimit:4;stroke-dasharray:none">
    <g
       id="g16"
       style="stroke:#000000;stroke-opacity:1;stroke-width:0.588;stroke-miterlimit:4;stroke-dasharray:none">
      <path
         d="m 13.61,13.02 -2.13,1.8 C 11.34,14.94 11.17,15 11,15 10.81,15 10.62,14.93 10.47,14.78 L 9.5,13.81 8.53,14.78 C 8.25,15.06 7.81,15.07 7.52,14.82 L 5.45,13.08 6.19,11.74 8.84,6.89 C 8.97,6.65 9.22,6.5 9.5,6.5 9.75,6.47 10.02,6.64 10.15,6.88 l 2.71,4.81 z"
         fill="#eceff1"
         id="path14"
         style="stroke:#000000;stroke-opacity:1;stroke-width:0.588;stroke-miterlimit:4;stroke-dasharray:none" />
    </g>
  </g>
  <g
     id="g24"
     transform="translate(0.54547942,0.544)"
     style="stroke:#000000;stroke-opacity:1;stroke-width:0.588;stroke-miterlimit:4;stroke-dasharray:none">
    <g
       id="g22"
       style="stroke:#000000;stroke-opacity:1;stroke-width:0.588;stroke-miterlimit:4;stroke-dasharray:none">
      <path
         d="M 9.5,0 C 9.086,0 8.75,0.336 8.75,0.75 V 7.055 L 8.84,6.89 C 8.97,6.65 9.22,6.5 9.5,6.5 Z"
         fill="#546d79"
         id="path20"
         style="stroke:#000000;stroke-opacity:1;stroke-width:0.588;stroke-miterlimit:4;stroke-dasharray:none" />
    </g>
  </g>
  <g
     id="g30"
     transform="translate(0.54547942,0.544)"
     style="stroke:#000000;stroke-opacity:1;stroke-width:0.588;stroke-miterlimit:4;stroke-dasharray:none">
    <g
       id="g28"
       style="stroke:#000000;stroke-opacity:1;stroke-width:0.588;stroke-miterlimit:4;stroke-dasharray:none">
      <path
         d="M 9.5,6.5 C 9.22,6.5 8.97,6.65 8.84,6.89 L 8.75,7.055 6.19,11.74 5.45,13.08 7.52,14.82 c 0.138,0.119 0.311,0.179 0.483,0.179 0.19,0 0.38,-0.072 0.527,-0.219 L 9.5,13.81 Z"
         fill="#cdd0d2"
         id="path26"
         style="stroke:#000000;stroke-opacity:1;stroke-width:0.588;stroke-miterlimit:4;stroke-dasharray:none" />
    </g>
  </g>
  <g
     id="g36"
     transform="translate(0.54547942,0.544)"
     style="stroke:#000000;stroke-opacity:1;stroke-width:0.588;stroke-miterlimit:4;stroke-dasharray:none">
    <g
       id="g34"
       style="stroke:#000000;stroke-opacity:1;stroke-width:0.588;stroke-miterlimit:4;stroke-dasharray:none">
      <path
         d="M 23.25,24 H 13.158 c -0.261,0 -0.503,-0.136 -0.64,-0.358 -0.136,-0.222 -0.147,-0.5 -0.028,-0.732 l 4.842,-9.5 c 0.126,-0.247 0.378,-0.404 0.655,-0.409 0.316,0.022 0.536,0.145 0.669,0.387 l 5.25,9.5 c 0.128,0.232 0.125,0.515 -0.01,0.744 C 23.761,23.86 23.516,24 23.25,24 Z"
         fill="#1976d2"
         id="path32"
         style="stroke:#000000;stroke-opacity:1;stroke-width:0.588;stroke-miterlimit:4;stroke-dasharray:none" />
    </g>
  </g>
  <g
     id="g42"
     transform="translate(0.54547942,0.544)"
     style="stroke:#000000;stroke-opacity:1;stroke-width:0.588;stroke-miterlimit:4;stroke-dasharray:none">
    <g
       id="g40"
       style="stroke:#000000;stroke-opacity:1;stroke-width:0.588;stroke-miterlimit:4;stroke-dasharray:none">
      <path
         d="m 17.987,13 c -0.277,0.005 -0.529,0.162 -0.655,0.409 l -4.842,9.5 c -0.119,0.233 -0.108,0.51 0.028,0.732 0.137,0.223 0.379,0.359 0.64,0.359 H 18 V 13.001 C 17.996,13.001 17.992,13 17.987,13 Z"
         fill="#1667b7"
         id="path38"
         style="stroke:#000000;stroke-opacity:1;stroke-width:0.588;stroke-miterlimit:4;stroke-dasharray:none" />
    </g>
  </g>
  <g
     id="g48"
     transform="translate(0.54547942,0.544)"
     style="stroke:#000000;stroke-opacity:1;stroke-width:0.588;stroke-miterlimit:4;stroke-dasharray:none">
    <g
       id="g46"
       style="stroke:#000000;stroke-opacity:1;stroke-width:0.588;stroke-miterlimit:4;stroke-dasharray:none">
      <path
         d="m 19.15,22.88 -5.54,-9.86 -2.13,1.8 C 11.34,14.94 11.17,15 11,15 10.81,15 10.62,14.93 10.47,14.78 L 9.5,13.81 8.53,14.78 C 8.25,15.06 7.81,15.07 7.52,14.82 L 5.45,13.08 0.09,22.89 C -0.04,23.12 -0.03,23.4 0.1,23.63 0.24,23.86 0.49,24 0.75,24 H 18.5 c 0.27,0 0.51,-0.14 0.65,-0.37 0.13,-0.23 0.13,-0.52 0,-0.75 z"
         fill="#2196f3"
         id="path44"
         style="stroke:#000000;stroke-opacity:1;stroke-width:0.588;stroke-miterlimit:4;stroke-dasharray:none" />
    </g>
  </g>
  <g
     id="g54"
     transform="translate(0.54547942,0.544)"
     style="stroke:#000000;stroke-opacity:1;stroke-width:0.588;stroke-miterlimit:4;stroke-dasharray:none">
    <g
       id="g52"
       style="stroke:#000000;stroke-opacity:1;stroke-width:0.588;stroke-miterlimit:4;stroke-dasharray:none">
      <path
         d="M 5.45,13.08 0.09,22.89 C -0.04,23.12 -0.03,23.4 0.1,23.63 0.24,23.86 0.49,24 0.75,24 H 9.5 V 13.81 l -0.97,0.97 c -0.147,0.146 -0.337,0.219 -0.527,0.219 -0.173,0 -0.345,-0.06 -0.483,-0.179 z"
         fill="#1d83d4"
         id="path50"
         style="stroke:#000000;stroke-opacity:1;stroke-width:0.588;stroke-miterlimit:4;stroke-dasharray:none" />
    </g>
  </g>
</svg>
