<svg width="512" height="512" version="1.1" viewBox="0 0 64 64" xmlns="http://www.w3.org/2000/svg"><defs><clipPath id="a"><path transform="matrix(.1 0 0 -.1 6992 9052)" d="m8484 14434h866 317c-26.2 132-52.4 264-78.6 395-70.6-7.7-141-15.4-212-23.1-193-21.1-386-44.1-579-63.4-170 0-313-138-313-309z"/></clipPath></defs><g stroke="#000"><g stroke-linecap="round" stroke-linejoin="round"><path d="m22 25.6-0.687 0.775-5.88-7.65 0.167-0.187 6.4 7.06" fill="#412c2a" stroke-width=".5"/><path d="m40.8 32.8-24.5 1.85 2.04-9.7 0.301-1.43 0.0646-0.31c0.151-0.713 0.744-1.25 1.47-1.32l16.4-1.76c0.855-0.254 1.74 0.279 1.92 1.16l0.447 2.24 0.288 1.43 0.267 1.35 1.05 5.26 0.249 1.25" fill="#b2b2b2" stroke-width=".75"/><path d="m60.9 34.3-5.42 8.38h-51.7l-1.82-3.36h21.4c0.0956-0.0452 1.01-0.472 2.47-1.06 3.63-1.47 10.6-3.96 16.5-3.96h18.6" fill="#ff4843" stroke-width=".75"/></g><g fill="#ffd980" stroke-width=".5"><path d="m42.2 37.5c0 0.452-0.366 0.818-0.817 0.818-0.451 0-0.817-0.366-0.817-0.818 0-0.451 0.366-0.816 0.817-0.816 0.451 0 0.817 0.366 0.817 0.816"/><path d="m47.1 37.5c0 0.452-0.366 0.818-0.816 0.818-0.452 0-0.818-0.366-0.818-0.818 0-0.451 0.366-0.816 0.818-0.816 0.451 0 0.816 0.366 0.816 0.816"/><path d="m51.9 37.5c0 0.452-0.366 0.818-0.818 0.818-0.452 0-0.818-0.366-0.818-0.818 0-0.451 0.366-0.816 0.818-0.816 0.452 0 0.818 0.366 0.818 0.816"/></g><g stroke-linecap="round" stroke-linejoin="round"><path d="m62.1 32.7-1.18 1.58h-18.6c-0.503 0-1 0.0279-1.5 0.0558-2.51 0.158-5.14 0.697-7.58 1.37-2.94 0.808-5.59 1.8-7.41 2.54-1.46 0.593-2.37 1.02-2.48 1.06h-7.98c-0.0189-0.403-0.0916-0.884 0.397-0.884h7.11c3.26-1.63 11.9-4.94 17.9-5.6 0.684-0.0771 1.33-0.12 1.93-0.12h19.3" fill="#ccc" stroke-width=".75"/><path transform="matrix(.133 0 0 .133 -1018 -980)" d="m7951 7569c-3.53 0.381-7.06 0.767-10.6 1.15-3.53 0.387-7.06 0.774-10.6 1.16-9.66 1.05-19.3 2.15-29 3.23-9.66 1.08-19.3 2.14-29 3.11-8.49 0-16.3 3.45-22 9.03-5.7 5.59-9.28 13.3-9.28 21.8h118c-2.63-13.2-5.24-26.3-7.86-39.5z" clip-path="url(#a)" fill="#565656" stroke-width="5.64"/><path d="m39.2 25h-20.9l0.301-1.43h20.3l0.288 1.43" fill="#ff4843" stroke-width=".5"/><path d="m11.7 37.5h-4.77c-0.404 0-0.731 0.327-0.731 0.731v1.01h6.23v-1.01c0-0.404-0.327-0.731-0.731-0.731" fill="#565656" stroke-width=".5"/><path d="m40.8 32.8v4e-3c-6 0.658-14.7 3.97-17.9 5.6h-7.38l0.79-3.76 24.5-1.85" fill="#878787" stroke-width=".75"/><path d="m55.5 42.7-0.779 1.2c-0.653 1.01-1.77 1.62-2.98 1.62h-44.2c-1.38 0-2.64-0.754-3.3-1.96l-0.467-0.859h51.7" fill="#0c7513" stroke-width=".75"/></g></g></svg>
