<svg width="512" height="512" version="1.1" viewBox="0 0 64 64" xml:space="preserve" xmlns="http://www.w3.org/2000/svg"><g transform="translate(-.314 1.66)"><path d="m10.9 56.3c1.87-0.224 9.26-1.21 11.1-1.68 1.38-0.352 4.19-2.17 6.82-3.8 2.02-1.25 3.98-2.27 4.86-3.14 1.36-1.34 5.64-6.83 9.55-11.7 2.64-3.26 4.52-5.41 5.77-6.91 0.743-0.886 1.32-2.41 1.43-3.13 0.195-1.3 0.396-2.71 0.0865-5.04-0.517-3.9-2.27-5.56-4.27-6.11-2.69-0.744-8.39 0.893-11.6 3.22-3.19 2.33-18.4 12.5-21.3 14.7-2.89 2.17-6.61 4.81-8.47 7.92-1.8 3.02-3.74 8.32-3.09 11.6 0.878 4.37 2.89 4.83 9.07 4.08z" fill="#009100" stroke="#000" stroke-width="1.02"/><path d="m9.36 38.3 2.4 2.92 9.51 1.82 10.3-2.92 16.1-16.8-0.0756-4.81-3.14-3.36-6.04 1.6-6.12 3.99-18.1 12.4z"/><g fill="none" stroke="#000" stroke-linecap="round" stroke-linejoin="round"><path d="m11.9 40.7c-2.49 1.66-4.66 3.5-6.56 6.38-1.55 2.34-3.24 5.65-1.91 8.29" stroke-width=".806"/><path d="m21.4 42.9c0.669 3.01 1.96 8.28 1.11 11.3" stroke-width=".752"/><path d="m9.9 38.2c-2.4-0.0466-4.69 1.57-6.2 4.65" stroke-width=".644"/><path d="m31.6 39.9c1.76 1.52 3.54 3.9 2.68 6.91" stroke-width=".698"/><path d="m47.4 23.3c1.36 0.293 3.28 1.66 2.5 4.49" stroke-width=".537"/><path d="m47.4 18.6c1.19-0.136 2.68 0.293 3.37 2.39" stroke-width=".483"/><path d="m44.4 15.3c0.544-0.511 0.967-0.713 1.61-0.741" stroke-width=".43"/></g><g stroke="#000" stroke-linejoin="round"><g stroke-linecap="round" stroke-width="1.06"><path d="m33.4 16.2h-4.23l-3.52 3.52 4.93 1.41v7.05h8.47v-7.05l4.93-1.41-3.52-3.52h-4.23" fill="#f8ec8f"/><path d="m32.7 14.7 2.11 3.52 2.11-3.52" fill="#f6c0a1"/><path d="m30.7 11.5c-1.3-0.775-2.11-1.9-2.11-3.15 0-2.34 2.84-4.23 6.34-4.23 3.5 0 6.34 1.9 6.34 4.23 0 1.25-0.817 2.38-2.11 3.15" fill="#ca6b4a"/><path d="m34.9 6.97c-0.421 1.26-1.6 2.11-2.93 2.11h-1.3v2.11c0 2.34 1.9 4.23 4.23 4.23 2.34 0 4.23-1.9 4.23-4.23v-2.11h-1.3c-1.33 0-2.51-0.853-2.93-2.11z" fill="#f8d4bf"/></g><path d="m10 24.9 46.3 1.03" fill="none" stroke-width=".591"/><g stroke-linecap="round" stroke-width="1.06"><path d="m25.7 19.7-1.1 1.65c-0.202 0.303-0.31 0.66-0.31 1.03 0 0.54 0.235 1.05 0.646 1.41l4.29 3.68 2.11-2.11-3.52-2.82 1.24-1.86" fill="#f8d4bf"/><path d="m44 19.7 1.1 1.65c0.202 0.303 0.31 0.66 0.31 1.03 0 0.54-0.235 1.05-0.646 1.41l-4.29 3.68-2.11-2.11 3.52-2.82-1.24-1.86" fill="#f8d4bf"/><path d="m38.4 25.3-2.11 1.41 2.11 2.11 2.11-1.41" fill="#f6c0a1"/></g></g><path d="m16 25c-1.78 1.49-3.28 2.06-9.42 1.8-3.04-0.128-3.84-2.9-2.95-3.65 0.897-0.75 5.72-0.765 7.71-0.357 3.77 0.774 4.66 2.21 4.66 2.21z"/><path d="m50.7 26.1c0.741 0.754 2.16 0.549 4.6 0.837 1.43 0.169 7.78 1.08 8.15-0.595 0.233-1.06-3.73-2.11-7.72-1.65-3.99 0.463-5.03 1.4-5.03 1.4z"/><path d="m31.4 25.3 2.11 1.41-2.11 2.11-2.11-1.41" fill="#f6c0a1" stroke="#000" stroke-linecap="round" stroke-linejoin="round" stroke-width="1.06"/></g></svg>
