<svg width="512" height="512" enable-background="new 0 0 128 128" version="1.1" viewBox="0 0 128 128" xmlns="http://www.w3.org/2000/svg"><g stroke="#000" stroke-linecap="round" stroke-linejoin="round" stroke-width="3"><path d="m84.3 34.9-1.9-4.3h-36.8l-1.9 4.3c-1.6 3.5-5 5.7-8.8 5.7h-20.4c-2.8 0-5 2.2-5 5v46.6c0 2.8 2.2 5 5 5h99c2.8 0 5-2.2 5-5v-46.5c0-2.8-2.2-5-5-5h-20.4c-3.8 0-7.3-2.3-8.8-5.8z" fill="#f8b62b"/><circle cx="64" cy="66.1" r="25.3" fill="#532b47"/><path d="m81.9 66.1c0 9.9-8 17.9-17.9 17.9-4.8 0-9.5-2-12.8-5.4-.3-.3-.5-.6-.8-.9s-.5-.6-.8-.9c-5.9-7.9-4.2-19.1 3.7-25 3.1-2.3 6.8-3.5 10.6-3.5h.7c1.5.1 2.9.3 4.3.7.4.1.8.2 1.2.4s.7.3 1.1.5c6.5 2.7 10.7 9.1 10.7 16.2z" fill="#2ec3fc"/><path d="m102 48.4h8.1v8.1h-8.1z" fill="#feded6"/><path d="m17.8 33.9h13.7v6.8h-13.7z" fill="#fd852b"/><path d="m69 48.9-19.4 27.8c-.9-1.2-1.6-2.5-2.2-3.8l17.2-24.7c1.6 0 3 .3 4.4.7z" fill="#abe7fe"/><path d="m71.3 49.7-20.1 28.8c-.3-.3-.5-.6-.8-.9l19.8-28.4c.4.2.7.4 1.1.5z" fill="#abe7fe"/><path d="m74.6 67.8c-1 0-1.8-.8-1.8-1.8 0-4.9-4-8.8-8.8-8.8-1 0-1.8-.8-1.8-1.8s.8-1.8 1.8-1.8c6.8 0 12.3 5.5 12.3 12.3 0 1.1-.7 1.9-1.7 1.9z" fill="#feded6"/></g></svg>
