<?xml version="1.0" encoding="UTF-8" standalone="no"?>
<svg
   xmlns:dc="http://purl.org/dc/elements/1.1/"
   xmlns:cc="http://creativecommons.org/ns#"
   xmlns:rdf="http://www.w3.org/1999/02/22-rdf-syntax-ns#"
   xmlns:svg="http://www.w3.org/2000/svg"
   xmlns="http://www.w3.org/2000/svg"
   xmlns:sodipodi="http://sodipodi.sourceforge.net/DTD/sodipodi-0.dtd"
   xmlns:inkscape="http://www.inkscape.org/namespaces/inkscape"
   id="Layer_1"
   enable-background="new 0 0 128 128"
   height="512"
   viewBox="0 0 128 128"
   width="512"
   version="1.1"
   sodipodi:docname="good-ware-photo-camera-outline.svg"
   inkscape:version="1.0.2-2 (e86c870879, 2021-01-15)">
  <metadata
     id="metadata23">
    <rdf:RDF>
      <cc:Work
         rdf:about="">
        <dc:format>image/svg+xml</dc:format>
        <dc:type
           rdf:resource="http://purl.org/dc/dcmitype/StillImage" />
        <dc:title></dc:title>
      </cc:Work>
    </rdf:RDF>
  </metadata>
  <defs
     id="defs21" />
  <sodipodi:namedview
     pagecolor="#ffffff"
     bordercolor="#666666"
     borderopacity="1"
     objecttolerance="10"
     gridtolerance="10"
     guidetolerance="10"
     inkscape:pageopacity="0"
     inkscape:pageshadow="2"
     inkscape:window-width="1920"
     inkscape:window-height="1001"
     id="namedview19"
     showgrid="false"
     inkscape:zoom="1.6210938"
     inkscape:cx="253.53253"
     inkscape:cy="256"
     inkscape:window-x="-9"
     inkscape:window-y="-9"
     inkscape:window-maximized="1"
     inkscape:current-layer="Layer_1" />
  <path
     d="m84.3 34.9-1.9-4.3h-36.8l-1.9 4.3c-1.6 3.5-5 5.7-8.8 5.7h-20.4c-2.8 0-5 2.2-5 5v46.6c0 2.8 2.2 5 5 5h99c2.8 0 5-2.2 5-5v-46.5c0-2.8-2.2-5-5-5h-20.4c-3.8 0-7.3-2.3-8.8-5.8z"
     fill="#f8b62b"
     id="path2"
     style="stroke:#000000;stroke-opacity:1;stroke-linejoin:round;stroke-linecap:round;stroke-width:3;stroke-miterlimit:4;stroke-dasharray:none" />
  <circle
     cx="64"
     cy="66.1"
     fill="#532b47"
     r="25.3"
     id="circle4"
     style="stroke:#000000;stroke-opacity:1;stroke-linejoin:round;stroke-linecap:round;stroke-width:3;stroke-miterlimit:4;stroke-dasharray:none" />
  <path
     d="m81.9 66.1c0 9.9-8 17.9-17.9 17.9-4.8 0-9.5-2-12.8-5.4-.3-.3-.5-.6-.8-.9s-.5-.6-.8-.9c-5.9-7.9-4.2-19.1 3.7-25 3.1-2.3 6.8-3.5 10.6-3.5h.7c1.5.1 2.9.3 4.3.7.4.1.8.2 1.2.4s.7.3 1.1.5c6.5 2.7 10.7 9.1 10.7 16.2z"
     fill="#2ec3fc"
     id="path6"
     style="stroke:#000000;stroke-opacity:1;stroke-linejoin:round;stroke-linecap:round;stroke-width:3;stroke-miterlimit:4;stroke-dasharray:none" />
  <path
     d="m102.5 48.4h8.1v8.1h-8.1z"
     fill="#feded6"
     id="path8"
     style="stroke:#000000;stroke-opacity:1;stroke-linejoin:round;stroke-linecap:round;stroke-width:3;stroke-miterlimit:4;stroke-dasharray:none" />
  <path
     d="m17.8 33.9h13.7v6.8h-13.7z"
     fill="#fd852b"
     id="path10"
     style="stroke:#000000;stroke-opacity:1;stroke-linejoin:round;stroke-linecap:round;stroke-width:3;stroke-miterlimit:4;stroke-dasharray:none" />
  <path
     d="m69 48.9-19.4 27.8c-.9-1.2-1.6-2.5-2.2-3.8l17.2-24.7c1.6 0 3 .3 4.4.7z"
     fill="#abe7fe"
     id="path12"
     style="stroke:#000000;stroke-opacity:1;stroke-linejoin:round;stroke-linecap:round;stroke-width:3;stroke-miterlimit:4;stroke-dasharray:none" />
  <path
     d="m71.3 49.7-20.1 28.8c-.3-.3-.5-.6-.8-.9l19.8-28.4c.4.2.7.4 1.1.5z"
     fill="#abe7fe"
     id="path14"
     style="stroke:#000000;stroke-opacity:1;stroke-linejoin:round;stroke-linecap:round;stroke-width:3;stroke-miterlimit:4;stroke-dasharray:none" />
  <path
     d="m74.6 67.8c-1 0-1.8-.8-1.8-1.8 0-4.9-4-8.8-8.8-8.8-1 0-1.8-.8-1.8-1.8s.8-1.8 1.8-1.8c6.8 0 12.3 5.5 12.3 12.3 0 1.1-.7 1.9-1.7 1.9z"
     fill="#feded6"
     id="path16"
     style="stroke:#000000;stroke-opacity:1;stroke-linejoin:round;stroke-linecap:round;stroke-width:3;stroke-miterlimit:4;stroke-dasharray:none" />
</svg>
