<?xml version="1.0" encoding="UTF-8"?>
<svg enable-background="new 0 0 512.013 512.013" version="1.1" viewBox="0 0 512 512" xml:space="preserve" xmlns="http://www.w3.org/2000/svg">
		
		
		
		
		
		
		
		
		
		
		
<path d="m510.1 294.4-13.59-27.17-27.17-65.55-11.9-15.11-4.08-36.01 8.78-71.14-0.7844-37.55-22.38-39.98h-6.399l-1.615 5.581-19.98 55.16 4.797 32.77 15.98 56.76-3.181 8.909-11.98-8.556-7.198-5.151-7.342-9.244v0.0125l-15.64-19.75v0.0125l-10.62-13.4-49.53-33.57-39.94-17.58-8.012-3.999-15.18 18.38 11.2 28.79 38.38 27.17 56.72 52.73 3.999 9.594-6.379 16.78-18.37 22.37-3.823-0.4538-16.99-1.95h-22.36l-106.3-23.99-72.74 15.99-36.37 12.12v-0.0129l-42.76 14.27-36.77 99.9-8.78 88.71 35.97 33.55 14.38 7.997-3.986 15.99 32.76 3.197 31.97 5.581 68.74 13.59h19.19l1.581-7.997h6.395v-16.79l27.17-8.78 26.68-10.08v-0.0255l1.248-0.4609 1.648-0.6265 0.8022 5.596 31.17 10.4 12.79 11.99 35.17 4.782 35.97 7.213 11.39-5.711 2.993-1.505-2.399-11.18-1.263-1.518 16.44 0.7207h24.77v-9.594l5.615-4.797-4.015-6.399-24.77-13.56-19.19-6.094 20.79-25.09 23.99-35.16 5.581-30.39 11.99-7.981 0.7844-11.2h30.38l19.18-19.99 0.41-1.407 5.98-20.17" stroke-width="3.804"/></svg>
