<svg width="512" height="512" version="1.1" viewBox="0 0 64 64" xmlns="http://www.w3.org/2000/svg"><g stroke="#000" stroke-linecap="round" stroke-linejoin="round"><path d="m34.5 44.1c-0.23-0.257-0.23-0.674 0-0.93l0.0929-0.104 0.752-0.838c0.231-0.257 0.605-0.257 0.836 0l5.27 4.39c0.231 0.256 0.231 0.673 0 0.93l-0.761 0.848-1.42 1.58c-0.231 0.257-0.605 0.257-0.836 0l-3.94-5.87" fill="#726b51" stroke-width=".5"/><g stroke-width=".931"><path d="m15.5 25.1h-3.72l-3.1 3.1 4.34 1.24v6.2h7.45v-6.2l4.34-1.24-3.1-3.1h-3.72" fill="#f8ec8f"/><path d="m8.71 28.2-0.968 1.45c-0.178 0.267-0.273 0.581-0.273 0.903 0 0.475 0.207 0.926 0.568 1.24l3.77 3.24 1.86-1.86-3.1-2.48 1.09-1.64" fill="#f8d4bf"/><path d="m14.9 23.8 1.86 3.1 1.86-3.1" fill="#f6c0a1"/><path d="m13.7 33.1 1.86 1.24-1.86 1.86-1.86-1.24" fill="#f6c0a1"/><path d="m13.1 21c-1.14-0.682-1.86-1.67-1.86-2.77 0-2.06 2.5-3.72 5.58-3.72 3.08 0 5.58 1.67 5.58 3.72 0 1.1-0.719 2.09-1.86 2.77" fill="#ca6b4a"/><path d="m16.8 17c-0.37 1.11-1.41 1.86-2.58 1.86h-1.14v1.86c0 2.06 1.67 3.72 3.72 3.72 2.06 0 3.72-1.67 3.72-3.72v-1.86h-1.14c-1.17 0-2.21-0.75-2.58-1.86z" fill="#f8d4bf"/></g><g><path d="m61.4 32.5h-58.9l2.37 11h39.8c11.6 0 16.8-11 16.8-11" fill="#c7b54f" stroke-width=".875"/><path d="m58.5 36.9h-55l-0.374-1.86h56.8c-0.57 0.862-1.44 1.86-1.44 1.86" fill="#4b6e94" stroke-width=".625"/><path d="m17.2 44c0.251-0.279 0.657-0.279 0.907 0l0.101 0.112 15.4-17.2 0.716 0.797-15.4 17.2 0.101 0.113c0.251 0.279 0.251 0.731 0 1.01l-4.27 6.38c-0.251 0.279-0.657 0.279-0.907 0l-0.827-0.92-1.54-1.72c-0.251-0.279-0.251-0.731 0-1.01l5.72-4.76" fill="#726b51" stroke-width=".5"/><path d="m29.7 30.1c-1.23 0-2.23 1.11-2.23 2.49h1.02c0-0.747 0.543-1.35 1.21-1.35 0.67 0 1.21 0.605 1.21 1.35h1.02c0-1.37-0.999-2.49-2.23-2.49" fill="#434345" stroke-width=".375"/></g><path d="m24.8 28.2 0.968 1.45c0.178 0.267 0.273 0.581 0.273 0.903 0 0.475-0.207 0.926-0.568 1.24l-3.77 3.24-1.86-1.86 3.1-2.48-1.09-1.64" fill="#f8d4bf" stroke-width=".931"/><path d="m19.9 33.1-1.86 1.24 1.86 1.86 1.86-1.24" fill="#f6c0a1" stroke-width=".931"/></g></svg>
