<svg width="512" height="512" version="1.1" viewBox="823 206 512 512" xmlns="http://www.w3.org/2000/svg"><g transform="matrix(1.67 0 0 1.67 -707 -268)" stroke="#000" stroke-linecap="round" stroke-linejoin="round" stroke-width="1.2"><path class="st8" d="m1054 372 96.7 126-142 16.2z" fill="#fff8b8"/><g transform="translate(-1.22 65)"><g stroke="#000" stroke-linecap="round" stroke-linejoin="round" stroke-width="1.2"><path class="st14" d="m1065 241c-7.1 1.5-9.8-2.2-9.8-2.2v14.8c6.9 2.9 9.1 1.9 16.3 0.4 7.1-1.5 9.8 2.2 9.8 2.2v-14.8c-6.9-2.9-9.2-1.9-16.3-0.4z" fill="#ff2929"/><path class="st10" d="m1052 235h5v234h-5z" fill="#bc9e6c"/><path class="st16" d="m1041 283h27.3l-3.8 16.6h-20.5z" fill="#826441"/></g></g><g transform="translate(-1.22 65)" fill="#826441"><path class="st6" d="m986 510h152l6.7-13.6-162 4z" fill="#826441" stroke="#000" stroke-linecap="round" stroke-linejoin="round" stroke-width="1.2"/></g><g transform="translate(-1.22 65)" fill="#bc9e6c"><path class="st17" d="m973 477 8.7 23.6 162-4 19.2-38.9z" fill="#bc9e6c" stroke="#000" stroke-linecap="round" stroke-linejoin="round" stroke-width="1.2"/></g></g></svg>
