<svg width="512" height="512" version="1.1" viewBox="0 0 64 64" xml:space="preserve" xmlns="http://www.w3.org/2000/svg"><g transform="matrix(1.99 0 0 1.99 -9.99 -.601)"><g stroke="#000" stroke-linecap="round" stroke-linejoin="round" stroke-width=".159"><circle cx="12.1" cy="14.7" r=".283" fill="#ff7900"/><g transform="translate(-107 -83.7)"><path d="m129 101c-0.039-0.0417-1.27-1.74-1.16-1.78 1.18-0.38 9.79-0.284 14.5-2.3 1.29-0.57 1.16-0.752 1.16 0.511-0.187 0.168-7.92 3.6-10.8 4.42-1.31-0.19-2.48-0.473-3.72-0.859z" fill="#ff7900"/><path d="m128 98.8 0.961-1.05c1.97-0.284 5.3 0.218 8.39-0.394l2.78-1.01c2.44-0.887 2.71-1.03 2.74-1.01 0.0524 0.0366 0.751 0.276 0.862 0.893-0.609 0.187-8.79 3.83-11 3.75-1.49-0.318-1.42-0.193-4.75-1.17z" fill="#004fff"/><path d="m129 97.7c6.54-0.483 6.77-1.19 9.39-1.95l2.02-0.652 2.44 0.201c-3.38 1.38-6.17 2.65-9.72 3.1-1.41-0.239-2.71-0.478-4.13-0.699z" fill="#009dff"/></g><path d="m14.5 13.8 6.7 1.24" fill="none"/></g><g><g><path d="m7.8 14.2-1.04 11.4 0.0233 0.663 0.117-0.655 1.11-11.4-0.201-0.0194" fill="#cd4c4c"/><g stroke="#000" stroke-width=".159"><path d="m7.36 25.3c2e-3 -0.119-0.234-0.19-0.509-0.179-0.276 0.0106-0.527 0.108-0.531 0.23-4e-3 0.122 0.368 0.143 0.545 0.152 0.177 9e-3 0.491-0.0141 0.496-0.202" fill="#3a1916"/><path d="m8.2 11.6-0.12 2.72c-4e-3 0.0914-0.0857 0.161-0.177 0.149l-0.0632-0.0078c-0.0825-0.0106-0.143-0.0836-0.137-0.167l0.183-2.71c6e-3 -0.0914 0.0896-0.158 0.18-0.145 0.0797 0.0124 0.138 0.0822 0.134 0.163" fill="#3a1916"/><path d="m5.33 25.8c0 0.397 1.03 0.609 1.59 0.582 0.556-0.0268 10.1-3.94 10.1-4.23 0.0529-0.291-0.344-0.635-0.82-0.609-0.476 0.0265-10.9 3.86-10.9 4.26" fill="#46a6ba"/><path d="m10.2 26.7c0.0413 0.315 0.493 0.904 2.01 0.479 1.52-0.424 7-4.87 7.26-5.35 0.26-0.479-0.731-0.538-0.986-0.424-1.03 0.493-8.32 4.98-8.28 5.3" fill="#46a6ba"/><path d="m13.8 21.2c0.187 1.2 0.303 2.14 0.303 2.14l-0.998 0.394s-1.87 0.867-2.63 0.262c-0.118-0.276 1.31-1.42 1.31-1.42s-0.166-0.632-0.34-1.36c-0.18-0.749-0.369-1.6-0.395-1.97-0.0522-0.736 1.94-4.31 1.94-4.31l1.71 0.709s-1.26 3.15-1.18 3.91c0.102 0.56 0.196 1.12 0.276 1.64" fill="#612218"/><path d="m12.7 19.4c-0.0159 0.42 0.671 3.3 0.908 4.09l-0.194 0.0769c-0.167-0.54-1.02-3.26-1.07-3.97-0.0441-0.612 1.45-3.9 1.52-3.9l0.262-0.0706s-1.41 3.28-1.42 3.78" fill="#3a1916"/><path d="m17.1 21.3c0.132 1.26 0.0984 2.26 0.0984 2.26s-0.0649 0.0504-0.373 0.296c-0.0988 0.0801-0.223 0.18-0.378 0.304v1e-3c-0.0116 9e-3 -0.024 0.0187-0.0367 0.0293-0.854 0.591-2.06 0.617-2.51 0.499-0.145-0.118-0.0797-0.433 0.0914-0.736 0.171-0.303 0.96-0.736 0.96-0.736s-0.148-0.822-0.291-1.71c-0.121-0.747-0.237-1.54-0.261-1.95-0.0526-0.893 0.815-4.05 0.815-4.05s0.16-0.358 0.492-0.667c0.101-0.0949 0.218-0.184 0.351-0.256 0.316-0.176 0.726-0.26 1.23-0.0998 0.343 0.827-0.0526 2.14-0.564 4.74 0.189 0.69 0.304 1.42 0.374 2.07" fill="#612218"/><path d="m16.2 19.4c0.0187 0.474 0.479 3.37 0.658 4.47-0.0988 0.0801-0.223 0.18-0.378 0.304-0.132-1.05-0.559-4.43-0.598-4.78-0.0325-0.294 0.341-1.66 0.637-2.95-0.541-0.423-0.722-1.1-0.779-1.59 0.101-0.0949 0.218-0.184 0.351-0.256-0.118 1.39 0.768 1.71 0.768 1.71s-0.682 2.5-0.659 3.09" fill="#3a1916"/><path d="m13.1 9.04s-0.815-0.333-1.46 0.678c-0.57 0.896-0.893 2.22-0.893 2.22s-0.945 0.0529-1.29 0.237c-0.341 0.184-0.578 0.552-0.578 0.552l-0.618-0.0319 0.119 1.17 0.447-0.0656s0.486 0.459 1.47 0.472c0.985 0.0138 1.67-0.144 2.18-1.12 0.512-0.972 1.41-3.65 0.617-4.12" fill="#3f8735"/><path d="m17.6 15.2c-1.17 0.997-2.99 0.938-3.74 0.84-0.0875-0.0102-0.16-0.0229-0.217-0.0335-0.0282-0.0053-0.0564-0.0116-0.0871-0.018-0.549-0.111-1.4-0.332-1.49-0.647-0.0956-0.333 0.263-1.82 0.263-1.82s-0.647-2.71-0.263-3.6c0.148-0.34 0.418-0.556 0.649-0.685 0.228-0.128 0.419-0.172 0.419-0.172l0.548-0.131 0.667-0.124s0.687-0.233 1.35-0.232c0.234 0 0.462 0.0307 0.658 0.11 0.744 0.306 1.63 5.97 1.23 6.53" fill="#78cb43"/><path d="m16.3 8.62c0.0455-0.0603 1.87 0.106 2.66 3.02-1.68 0.592-1.97 0.296-1.97 0.296s-1.3-2.51-0.686-3.31" fill="#3f8735"/><path d="m17.8 13c0.666 0.121 1.2-0.242 1.24-1.12 0.0452-0.878-0.727-1.26-1.18-1.3-0.454-0.0455-0.984 0.242-1.07 0.954-0.091 0.711 0.348 1.35 1.01 1.47" fill="#78cb43"/></g></g><g stroke="#000" stroke-width=".159"><path d="m17.2 14.8 8.66 1.44" stroke-linecap="round" stroke-linejoin="round"/><path d="m13.8 16c-0.0875-0.0102-0.16-0.0229-0.217-0.0335-0.0282-0.0053-0.0564-0.0116-0.0871-0.018-0.277-1.4 0.114-5.91 0.114-5.91s-0.192-0.77-0.28-1.03c-4e-3 -0.0127-6e-3 -0.0254-6e-3 -0.0409l0.3-0.072c-7e-3 0.0243-7e-3 0.0441-5e-3 0.06 0.0445 0.245 0.289 1.14 0.289 1.14s-0.158 2.35-0.246 3.64c-0.0621 0.92 0.0607 1.82 0.138 2.27" fill="#3f8735"/><path d="m11.9 15.4c0.0291-0.57 0.136-0.844 0.234-1.34 1.73 0.722 3.07 0.916 5.42-0.131 8e-3 0.0491 0.0342 1.26 0.0209 1.27-1.13 0.927-3.64 1.36-5.68 0.197z" fill="#264d97" stroke-linecap="round" stroke-linejoin="round"/></g><g><path d="m17.1 13 3.53 10.9 0.282 0.6-0.149-0.648-3.47-10.9-0.193 0.0614" fill="#cd4c4c"/><g stroke="#000" stroke-width=".159"><path d="m16.4 10.5 0.954 2.54c0.0321 0.0861-0.0159 0.181-0.104 0.206l-0.061 0.0173c-0.0804 0.0229-0.164-0.0204-0.192-0.0995l-0.893-2.56c-0.0303-0.0868 0.0198-0.181 0.109-0.204 0.078-0.0201 0.159 0.0219 0.187 0.0974" fill="#3a1916"/><path d="m15.7 8.51c-0.312 0.553-1.15 1.13-1.4 1.27-0.298 0.165-0.552 0.157-1.04 0.0162-0.319-0.09-0.493-0.384-0.577-0.58 0.228-0.128 0.419-0.172 0.419-0.172l1.25-0.299s0.687-0.233 1.35-0.232" fill="#3f8735"/><path d="m15.3 8.57c-0.0452 0.173-1.23 0.902-1.49 0.98-7e-3 0.0019-0.0148 0.0039-0.0212 0.0049-0.0787 0.0148-0.173 0.0011-0.262-0.0251-0.153-0.0441-0.3-0.124-0.362-0.165-0.0882-0.0589-0.279-0.434-0.315-0.651-5e-3 -0.0233-7e-3 -0.0452-7e-3 -0.0642 0-0.198 0.454-0.466 0.454-0.466 0.156-0.0663 0.379-0.139 0.613-0.205l0.0138-0.0042 0.259-0.0684 0.0526-0.0138c0.396-0.0988 0.754-0.166 0.808-0.148 0.0476 0.0159 0.118 0.162 0.174 0.331 0.0621 0.187 0.107 0.403 0.0829 0.496" fill="#78cb43"/><path d="m13.6 8.97c0.0201 0.11 0.0811 0.352 0.141 0.586-7e-3 0.0019-0.0148 0.0039-0.0212 0.0049-0.0787 0.0148-0.173 0.0011-0.262-0.0251-0.0526-0.198-0.109-0.401-0.146-0.513-0.0543-0.163 0.273-0.673 0.531-1.04l0.0138-0.0042 0.259-0.0684 0.0526-0.0138c-0.267 0.401-0.593 0.927-0.567 1.07" fill="#3f8735"/><path d="m15.2 8.08c-0.263 0.378-0.949 0.802-1.55 0.89-0.358 0.0529-0.639-0.101-0.819-0.251-5e-3 -0.0233-7e-3 -0.0452-7e-3 -0.0642 0-0.198 0.454-0.466 0.454-0.466 0.492-0.21 1.65-0.473 1.75-0.44 0.0476 0.0159 0.118 0.162 0.174 0.331" fill="#3f8735"/><path d="m12.9 6.25s0.51-0.971 1.48-0.776c0.971 0.195 1.17 1.2 1.16 1.33-0.0155 0.129-2.64-0.556-2.64-0.556" fill="#439726"/><path d="m12.9 6.7s-0.187 0.911 0.0162 1.41c0.186 0.46 0.395 0.564 0.722 0.582 0.236 0.013 0.694-0.132 0.968-0.399 0.372-0.363 0.661-1.02 0.661-1.02s-1.22-1.07-2.37-0.578" fill="#f79d97"/><path d="m15.3 7.48c-1e-3 0.0095-3e-3 0.0166-4e-3 0.0254-4e-3 0.0141-8e-3 0.0272-0.0138 0.0413-3e-3 0.0095-8e-3 0.0198-0.0123 0.0293-6e-3 0.013-0.0134 0.0275-0.0219 0.0409-0.012 0.0198-0.0254 0.0392-0.0399 0.0568-0.121 0.152-0.318 0.228-0.515 0.213-2e-3 0-4e-3 -7.94e-4 -6e-3 -7.94e-4 -0.0116-0.0011-0.0243-0.0021-0.0374-0.0032-0.0137-0.0011-0.0264-0.0024-0.0402-0.0042-5e-3 2.65e-4 -0.0106-2.64e-4 -0.0159-7.93e-4 -0.0169-0.0019-0.0339-0.0035-0.0508-0.0056l-0.0991-0.0109c-0.215-0.0261-0.432-0.0589-0.535-0.0886-0.425-0.0642-0.679-0.338-0.679-0.338s-0.293 0.15-0.508 0.129c-0.321-0.031-0.167-0.655-0.167-0.655 0.049-0.0236 0.0988-0.0438 0.15-0.0614 0.758-0.265 1.65 0.0335 2.05 0.149 0.0769 0.0222 0.152 0.0497 0.221 0.0822 0.172 0.0804 0.307 0.183 0.323 0.274 8e-3 0.0459 9e-3 0.0878 2e-3 0.128" fill="#4c85cd"/><path d="m15.3 7.48c-1e-3 0.0095-3e-3 0.0166-4e-3 0.0254-4e-3 0.0141-8e-3 0.0272-0.0138 0.0413-3e-3 0.0095-8e-3 0.0198-0.0123 0.0293-6e-3 0.013-0.0134 0.0275-0.0219 0.0409-0.012 0.0198-0.0254 0.0392-0.0399 0.0568-0.121 0.152-0.318 0.228-0.515 0.213-2e-3 0-4e-3 -7.94e-4 -6e-3 -7.94e-4 -0.0116-0.0011-0.0243-0.0021-0.0374-0.0032-0.0137-0.0011-0.0264-0.0024-0.0402-0.0042-5e-3 2.65e-4 -0.0106-2.64e-4 -0.0159-7.93e-4 -0.0169-0.0019-0.0339-0.0035-0.0508-0.0056l-0.0991-0.0109c0.365-0.222 0.491-0.537 0.532-0.784 0.172 0.0804 0.307 0.183 0.323 0.274 8e-3 0.0459 9e-3 0.0878 2e-3 0.128" fill="#3a1916"/><path d="m14.8 7.11c-0.164 0.329-0.579 0.538-0.939 0.429-0.311-0.0931-0.589-0.354-0.589-0.354s-0.28 0.207-0.449 0.148c-0.127-0.0444-0.131-0.314-0.102-0.488 0.758-0.265 1.7 0.0938 2.08 0.264" fill="#fff"/><path d="m12.4 6.88c0.0254 0.101 0.13 0.126 0.13 0.126s0.426-0.213 1-0.166c0.575 0.0476 1.56 0.489 1.82 0.741 0.186-0.237 0.337-0.692 0.212-0.861-0.125-0.169-1.76-0.993-2.74-0.53-0.377 0.192-0.422 0.69-0.422 0.69" fill="#44ce2f"/><path d="m17.8 12.5c-0.0914 0.164-0.545 0.21-0.756 0.216-0.156 0.0042-0.426-0.327-0.573-0.577-0.0494-0.085-0.085-0.161-0.0967-0.211-0.145 0.0265-0.256-0.0713-0.256-0.236 0-0.164 0.604-0.38 0.985-0.44 0.381-0.0589 0.788 1.08 0.697 1.25" fill="#2f8ece"/><path d="m8.4 12.9s0.249-0.125 0.118-0.381c-0.131-0.256-1.15-0.111-1.22-0.0392-0.072 0.072-0.105 0.243-0.0526 0.322 0.0526 0.0787 0.164 0.164 0.164 0.164s-0.0854 0.578 0.19 0.854c0.276 0.276 0.788 0.184 0.834 0.0984 0.0459-0.0854 0.105-0.414 0.0917-0.597-0.013-0.184-0.125-0.421-0.125-0.421" fill="#2f8ece"/><path d="m17.2 23.5s-0.119 0.0914-0.788 0.63c-0.854 0.591-2.06 0.617-2.51 0.499-0.145-0.118-0.0797-0.433 0.0914-0.736 0.171-0.303 0.96-0.736 0.96-0.736s-0.148-0.822-0.291-1.71c0.403 0.192 1.3 0.218 2.44-0.206 0.132 1.26 0.0984 2.26 0.0984 2.26" fill="#ce2f2f"/><path d="m14.1 23.3-0.494 0.195-0.504 0.199s-0.314 0.146-0.737 0.276c-0.608 0.187-1.44 0.343-1.89-0.0138-0.0808-0.19 0.575-0.793 0.989-1.15 0.187-0.16 0.325-0.27 0.325-0.27s-0.166-0.632-0.34-1.36c0.58 0.248 1.85 0.0981 2.35-0.0201 0.0748 0.483 0.139 0.923 0.188 1.28 0.0734 0.53 0.115 0.867 0.115 0.867" fill="#ce352f"/></g></g></g><g fill="#3a1916" stroke="#000" stroke-width=".159"><path d="m14.5 23.5s1.05 0.0825 1.24 1.09c-1.11 0.474-2.12 0.144-2.23 0.0208-0.103-0.124 0.412-0.886 0.989-1.11"/><path d="m17.2 22.4s-0.473 1.14-0.359 1.57c0.429-0.289 0.543-0.464 0.551-0.49 9e-3 -0.0261-0.0614-0.819-0.193-1.08"/><path d="m14.1 23.3-0.494 0.195c-0.0201-0.379 0.234-0.854 0.379-1.06 0.0734 0.53 0.115 0.867 0.115 0.867"/><path d="m12.3 24c-0.608 0.187-1.44 0.343-1.89-0.0138-0.0808-0.19 0.575-0.793 0.989-1.15 0.303 0.166 0.853 0.591 0.901 1.16"/></g><g fill="#ff7900" stroke="#000" stroke-linecap="round" stroke-linejoin="round" stroke-width=".159"><circle cx="26" cy="16.3" r=".283"/><circle cx="17.2" cy="14.8" r=".283"/><circle cx="21.2" cy="15" r=".283"/></g><path d="m21 23.4c-0.0445-0.11-0.289-0.0833-0.539 0.0349-0.249 0.118-0.442 0.307-0.398 0.421 0.0437 0.114 0.394-0.013 0.56-0.0744 0.167-0.0614 0.447-0.206 0.377-0.381" fill="#3a1916" stroke="#000" stroke-width=".159"/></g></svg>
