<svg enable-background="new 0 0 512.013 512.013" version="1.1" viewBox="0 0 512 512" xml:space="preserve" xmlns="http://www.w3.org/2000/svg"><path d="m3.837 360.6 1.164-2.055 21.33-3.669 9.549-13.98 13.22-8.8 24.27-6.613 23.35-3.9-17.48-15.21-20.59-25.72-0.6106-9.231-5.256-9.87-0.7429-13.96 2.212-19.12 5.883-11.75 6.39-0.9163 3.888-10.12 12.07-8.037 4.833-16.95 16.18-17.63 33.44-15.67 0.0109-0.0106 1.094-0.5116 36.46-5.343 18.66-2.724 48.52 9.537 14.95 7.497h0.0102l24.72 12.34 3.041 5.139h-0.0102l23.42 39.68 11.76 35.29-3.029 18.14-0.5366 3.277 28.55-14.8 37.49-24.25 19.86-8.067h7.032l5.082-7.746 18.75-28.64 14.46-26.64-1.964-4.236 1.106-6.246 4.776-1.094 4.776 1.094 1.832 4.776-2.2 5.883-3.306 2.2-0.8294-0.2889-6.537 17.57-8.445 22.06-11.68 24.63 6.711 4.95 2.212-3.479 24.8-19.86 23.16-18.75 15.99-15.97 2.096-2.096-0.4496-0.2889-0.7262-3.698 1.469-3.289 4.032-1.486 4.41 1.486 1.486 2.926-1.849 4.776-2.942 1.832-2.505-0.6106-13.84 15.87-17.09 16-15.43 16.54-10.47 10.45-6.087 6.477 12.14 10.61c-0.0412 0.2476-0.1239 0.6563-0.1651 1.123l12.67 8.43 13.13 11.95 0.0828-0.2064h5.883l2.942 5.868-0.7304 5.91-5.154 0.7138-5.883-1.469v-5.154l0.0828-0.1652-23.53-13.67c-0.0827 5.97-0.0827 11.66-0.0827 11.66l-8.823 2.183 3.421 8.593 3.915-0.4954 2.955 6.609-2.955 4.425-2.942 2.2-4.398-0.7304-2.942-7.353 1.894-1.894-4.791-7.089-5.925 8.237-10.29 20.59-3.669 13.22-2.2 8.823-8.823 5.88 0.7304 5.879-1.469 11.02-17.63 2.212-17.41-2.183-0.2475 0.7138-11.76 8.808-15.43 2.938h-47.04l-47.76 7.353-56.6-1.473-54.37-7.334-22.78 0.7262-67.6 2.959-28.66 1.457-15.43-5.887 1.762-3.099" stroke-width="3.779"/></svg>
