<svg width="512" height="512" version="1.1" viewBox="0 0 64 64" xml:space="preserve" xmlns="http://www.w3.org/2000/svg"><path d="m18.8 27.7-2.07 22.7 0.0464 1.32 0.233-1.3 2.21-22.7-0.4-0.0386" fill="#cd4c4c" stroke-width="1.99"/><g stroke="#000" stroke-width=".316"><path d="m17.9 49.7c4e-3 -0.237-0.466-0.378-1.01-0.356-0.549 0.0211-1.05 0.215-1.06 0.458-8e-3 0.243 0.732 0.285 1.08 0.302s0.977-0.0281 0.987-0.402" fill="#3a1916"/><path d="m19.6 22.5-0.239 5.41c-8e-3 0.182-0.171 0.32-0.352 0.297l-0.126-0.0155c-0.164-0.0211-0.285-0.166-0.273-0.332l0.364-5.39c0.0119-0.182 0.178-0.314 0.358-0.289 0.159 0.0247 0.275 0.164 0.267 0.324" fill="#3a1916"/><path d="m20.3 47.9c0 0.79 3.46 1.29 4.58 1.23 1.11-0.0533 10-4.27 10-4.85 0.105-0.579-1.61-2.05-2.56-2-0.947 0.0527-12 4.83-12 5.62" fill="#46a6ba"/><path d="m26.1 50c0.0822 0.627 2.08 2.01 5.1 1.16 3.02-0.844 8.57-4.12 9.09-5.08 0.517-0.953-1.71-2.69-2.22-2.47-2.05 0.981-12 5.75-12 6.39" fill="#46a6ba"/><path d="m30.8 41.6c0.372 2.39 0.603 4.26 0.603 4.26l-1.99 0.784s-3.72 1.73-5.23 0.521c-0.235-0.549 2.61-2.83 2.61-2.83s-0.33-1.26-0.677-2.71c-0.358-1.49-0.734-3.18-0.786-3.92-0.104-1.46 3.86-8.58 3.86-8.58l3.4 1.41s-2.51 6.27-2.35 7.78c0.203 1.11 0.39 2.23 0.549 3.26" fill="#612218"/><path d="m28.6 38c-0.0316 0.836 1.34 6.57 1.81 8.14l-0.386 0.153c-0.332-1.07-2.03-6.49-2.13-7.9-0.0878-1.22 2.89-7.76 3.02-7.76l0.521-0.14s-2.81 6.53-2.83 7.52" fill="#3a1916"/><path d="m37.3 41.8c0.263 2.51 0.196 4.5 0.196 4.5s-0.129 0.1-0.742 0.589c-0.197 0.159-0.444 0.358-0.752 0.605v2e-3c-0.0231 0.0179-0.0478 0.0372-0.073 0.0583-1.7 1.18-4.1 1.23-4.99 0.993-0.289-0.235-0.159-0.862 0.182-1.46 0.34-0.603 1.91-1.46 1.91-1.46s-0.295-1.64-0.579-3.4c-0.241-1.49-0.472-3.06-0.519-3.88-0.105-1.78 1.62-8.06 1.62-8.06s0.318-0.712 0.979-1.33c0.201-0.189 0.434-0.366 0.698-0.509 0.629-0.35 1.44-0.517 2.45-0.199 0.683 1.65-0.105 4.26-1.12 9.43 0.376 1.37 0.605 2.83 0.744 4.12" fill="#612218"/><path d="m35.5 38c0.0372 0.943 0.953 6.71 1.31 8.9-0.197 0.159-0.444 0.358-0.752 0.605-0.263-2.09-1.11-8.82-1.19-9.51-0.0647-0.585 0.679-3.3 1.27-5.87-1.08-0.842-1.44-2.19-1.55-3.16 0.201-0.189 0.434-0.366 0.698-0.509-0.235 2.77 1.53 3.4 1.53 3.4s-1.36 4.98-1.31 6.15" fill="#3a1916"/><path d="m29.4 17.4s-1.62-0.663-2.91 1.35c-1.13 1.78-1.78 4.42-1.78 4.42s-1.88 0.105-2.57 0.472c-0.679 0.366-1.15 1.1-1.15 1.1l-1.23-0.0635 0.237 2.33 0.89-0.131s0.967 0.913 2.93 0.939c1.96 0.0275 3.32-0.287 4.34-2.23 1.02-1.93 2.81-7.26 1.23-8.2" fill="#3f8735"/><path d="m38.3 29.6c-2.33 1.98-5.95 1.87-7.44 1.67-0.174-0.0203-0.318-0.0456-0.432-0.0667-0.0561-0.0106-0.112-0.0231-0.173-0.0358-1.09-0.221-2.79-0.661-2.97-1.29-0.19-0.663 0.523-3.62 0.523-3.62s-1.29-5.39-0.523-7.16c0.295-0.677 0.832-1.11 1.29-1.36 0.454-0.255 0.834-0.342 0.834-0.342l1.09-0.261 1.33-0.247s1.37-0.464 2.69-0.462c0.466 0 0.919 0.0611 1.31 0.219 1.48 0.609 3.24 11.9 2.45 13" fill="#78cb43"/><path d="m35.7 16.6c0.0906-0.12 3.72 0.211 5.29 6.01-3.34 1.18-3.92 0.589-3.92 0.589s-2.59-4.99-1.37-6.59" fill="#3f8735"/><path d="m38.7 25.3c1.33 0.241 2.39-0.482 2.47-2.23 0.09-1.75-1.45-2.51-2.35-2.59-0.903-0.0905-1.96 0.482-2.13 1.9-0.181 1.41 0.693 2.69 2.01 2.93" fill="#78cb43"/><path d="m30.8 31.2c-0.174-0.0203-0.318-0.0456-0.432-0.0667-0.0561-0.0106-0.112-0.0231-0.173-0.0358-0.551-2.79 0.227-11.8 0.227-11.8s-0.382-1.53-0.557-2.05c-8e-3 -0.0253-0.0119-0.0506-0.0119-0.0814l0.597-0.143c-0.0139 0.0484-0.0139 0.0878-0.0099 0.119 0.0886 0.488 0.575 2.27 0.575 2.27s-0.314 4.68-0.49 7.24c-0.124 1.83 0.121 3.62 0.275 4.52" fill="#3f8735"/></g><g transform="matrix(1.99 0 0 1.99 3.3 -.601)"><path d="m17.1 13 3.53 10.9 0.282 0.6-0.149-0.648-3.47-10.9-0.193 0.0614" fill="#cd4c4c"/><g stroke="#000" stroke-width=".159"><path d="m16.4 10.5 0.954 2.54c0.0321 0.0861-0.0159 0.181-0.104 0.206l-0.061 0.0173c-0.0804 0.0229-0.164-0.0204-0.192-0.0995l-0.893-2.56c-0.0303-0.0868 0.0198-0.181 0.109-0.204 0.078-0.0201 0.159 0.0219 0.187 0.0974" fill="#3a1916"/><path d="m15.7 8.51c-0.312 0.553-1.15 1.13-1.4 1.27-0.298 0.165-0.552 0.157-1.04 0.0162-0.319-0.09-0.493-0.384-0.577-0.58 0.228-0.128 0.419-0.172 0.419-0.172l1.25-0.299s0.687-0.233 1.35-0.232" fill="#3f8735"/><path d="m15.3 8.57c-0.0452 0.173-1.23 0.902-1.49 0.98-7e-3 0.0019-0.0148 0.0039-0.0212 0.0049-0.0787 0.0148-0.173 0.0011-0.262-0.0251-0.153-0.0441-0.3-0.124-0.362-0.165-0.0882-0.0589-0.279-0.434-0.315-0.651-5e-3 -0.0233-7e-3 -0.0452-7e-3 -0.0642 0-0.198 0.454-0.466 0.454-0.466 0.156-0.0663 0.379-0.139 0.613-0.205l0.0138-0.0042 0.259-0.0684 0.0526-0.0138c0.396-0.0988 0.754-0.166 0.808-0.148 0.0476 0.0159 0.118 0.162 0.174 0.331 0.0621 0.187 0.107 0.403 0.0829 0.496" fill="#78cb43"/><path d="m13.6 8.97c0.0201 0.11 0.0811 0.352 0.141 0.586-7e-3 0.0019-0.0148 0.0039-0.0212 0.0049-0.0787 0.0148-0.173 0.0011-0.262-0.0251-0.0526-0.198-0.109-0.401-0.146-0.513-0.0543-0.163 0.273-0.673 0.531-1.04l0.0138-0.0042 0.259-0.0684 0.0526-0.0138c-0.267 0.401-0.593 0.927-0.567 1.07" fill="#3f8735"/><path d="m15.2 8.08c-0.263 0.378-0.949 0.802-1.55 0.89-0.358 0.0529-0.639-0.101-0.819-0.251-5e-3 -0.0233-7e-3 -0.0452-7e-3 -0.0642 0-0.198 0.454-0.466 0.454-0.466 0.492-0.21 1.65-0.473 1.75-0.44 0.0476 0.0159 0.118 0.162 0.174 0.331" fill="#3f8735"/><path d="m12.9 6.25s0.51-0.971 1.48-0.776c0.971 0.195 1.17 1.2 1.16 1.33-0.0155 0.129-2.64-0.556-2.64-0.556" fill="#439726"/><path d="m12.9 6.7s-0.187 0.911 0.0162 1.41c0.186 0.46 0.395 0.564 0.722 0.582 0.236 0.013 0.694-0.132 0.968-0.399 0.372-0.363 0.661-1.02 0.661-1.02s-1.22-1.07-2.37-0.578" fill="#f79d97"/><path d="m15.3 7.48c-1e-3 0.0095-3e-3 0.0166-4e-3 0.0254-4e-3 0.0141-8e-3 0.0272-0.0138 0.0413-3e-3 0.0095-8e-3 0.0198-0.0123 0.0293-6e-3 0.013-0.0134 0.0275-0.0219 0.0409-0.012 0.0198-0.0254 0.0392-0.0399 0.0568-0.121 0.152-0.318 0.228-0.515 0.213-2e-3 0-4e-3 -7.94e-4 -6e-3 -7.94e-4 -0.0116-0.0011-0.0243-0.0021-0.0374-0.0032-0.0137-0.0011-0.0264-0.0024-0.0402-0.0042-5e-3 2.65e-4 -0.0106-2.64e-4 -0.0159-7.93e-4 -0.0169-0.0019-0.0339-0.0035-0.0508-0.0056l-0.0991-0.0109c-0.215-0.0261-0.432-0.0589-0.535-0.0886-0.425-0.0642-0.679-0.338-0.679-0.338s-0.293 0.15-0.508 0.129c-0.321-0.031-0.167-0.655-0.167-0.655 0.049-0.0236 0.0988-0.0438 0.15-0.0614 0.758-0.265 1.65 0.0335 2.05 0.149 0.0769 0.0222 0.152 0.0497 0.221 0.0822 0.172 0.0804 0.307 0.183 0.323 0.274 8e-3 0.0459 9e-3 0.0878 2e-3 0.128" fill="#4c85cd"/><path d="m15.3 7.48c-1e-3 0.0095-3e-3 0.0166-4e-3 0.0254-4e-3 0.0141-8e-3 0.0272-0.0138 0.0413-3e-3 0.0095-8e-3 0.0198-0.0123 0.0293-6e-3 0.013-0.0134 0.0275-0.0219 0.0409-0.012 0.0198-0.0254 0.0392-0.0399 0.0568-0.121 0.152-0.318 0.228-0.515 0.213-2e-3 0-4e-3 -7.94e-4 -6e-3 -7.94e-4 -0.0116-0.0011-0.0243-0.0021-0.0374-0.0032-0.0137-0.0011-0.0264-0.0024-0.0402-0.0042-5e-3 2.65e-4 -0.0106-2.64e-4 -0.0159-7.93e-4 -0.0169-0.0019-0.0339-0.0035-0.0508-0.0056l-0.0991-0.0109c0.365-0.222 0.491-0.537 0.532-0.784 0.172 0.0804 0.307 0.183 0.323 0.274 8e-3 0.0459 9e-3 0.0878 2e-3 0.128" fill="#3a1916"/><path d="m14.8 7.11c-0.164 0.329-0.579 0.538-0.939 0.429-0.311-0.0931-0.589-0.354-0.589-0.354s-0.28 0.207-0.449 0.148c-0.127-0.0444-0.131-0.314-0.102-0.488 0.758-0.265 1.7 0.0938 2.08 0.264" fill="#fff"/><path d="m12.4 6.88c0.0254 0.101 0.13 0.126 0.13 0.126s0.426-0.213 1-0.166c0.575 0.0476 1.56 0.489 1.82 0.741 0.186-0.237 0.337-0.692 0.212-0.861s-1.76-0.993-2.74-0.53c-0.377 0.192-0.422 0.69-0.422 0.69" fill="#44ce2f"/><path d="m17.8 12.5c-0.0914 0.164-0.545 0.21-0.756 0.216-0.156 0.0042-0.426-0.327-0.573-0.577-0.0494-0.085-0.085-0.161-0.0967-0.211-0.145 0.0265-0.256-0.0713-0.256-0.236 0-0.164 0.604-0.38 0.985-0.44 0.381-0.0589 0.788 1.08 0.697 1.25" fill="#2f8ece"/><path d="m8.4 12.9s0.249-0.125 0.118-0.381-1.15-0.111-1.22-0.0392c-0.072 0.072-0.105 0.243-0.0526 0.322 0.0526 0.0787 0.164 0.164 0.164 0.164s-0.0854 0.578 0.19 0.854c0.276 0.276 0.788 0.184 0.834 0.0984 0.0459-0.0854 0.105-0.414 0.0917-0.597-0.013-0.184-0.125-0.421-0.125-0.421" fill="#2f8ece"/><path d="m17.2 23.5s-0.119 0.0914-0.788 0.63c-0.854 0.591-2.06 0.617-2.51 0.499-0.145-0.118-0.0797-0.433 0.0914-0.736 0.171-0.303 0.96-0.736 0.96-0.736s-0.148-0.822-0.291-1.71c0.403 0.192 1.3 0.218 2.44-0.206 0.132 1.26 0.0984 2.26 0.0984 2.26" fill="#ce2f2f"/><path d="m14.1 23.3-0.998 0.394s-0.314 0.146-0.737 0.276c-0.608 0.187-1.44 0.343-1.89-0.0138-0.0808-0.19 0.575-0.793 0.989-1.15 0.187-0.16 0.325-0.27 0.325-0.27s-0.166-0.632-0.34-1.36c0.58 0.248 1.85 0.0981 2.35-0.0201 0.0748 0.483 0.139 0.923 0.188 1.28 0.0734 0.53 0.115 0.867 0.115 0.867" fill="#ce352f"/></g></g><g transform="matrix(1.99 0 0 1.99 3.3 -.601)" fill="#3a1916" stroke="#000" stroke-width=".159"><path d="m14.5 23.5s1.05 0.0825 1.24 1.09c-1.11 0.474-2.12 0.144-2.23 0.0208-0.103-0.124 0.412-0.886 0.989-1.11"/><path d="m17.2 22.4s-0.473 1.14-0.359 1.57c0.429-0.289 0.543-0.464 0.551-0.49 9e-3 -0.0261-0.0614-0.819-0.193-1.08"/><path d="m14.1 23.3-0.494 0.195c-0.0201-0.379 0.234-0.854 0.379-1.06 0.0734 0.53 0.115 0.867 0.115 0.867"/><path d="m12.3 24c-0.608 0.187-1.44 0.343-1.89-0.0138-0.0808-0.19 0.575-0.793 0.989-1.15 0.303 0.166 0.853 0.591 0.901 1.16"/></g><path d="m45.1 46c-0.0886-0.219-0.575-0.166-1.07 0.0694-0.496 0.235-0.88 0.611-0.792 0.838 0.087 0.227 0.784-0.0259 1.11-0.148 0.332-0.122 0.89-0.41 0.75-0.758" fill="#3a1916" stroke="#000" stroke-width=".316"/></svg>
