<svg width="512" height="512" enable-background="new 0 0 1400 980" version="1.1" viewBox="0 0 512 512" xml:space="preserve" xmlns="http://www.w3.org/2000/svg" xmlns:x="adobe:ns:meta/"><g transform="matrix(1.36 0 0 1.36 -92.8 -86)"><path d="m250 176s11.3-4.6 20.2 9.37c7.88 12.4 12.3 30.7 12.3 30.7s13.1 0.731 17.8 3.28c4.71 2.54 7.99 7.63 7.99 7.63l8.54-0.441-1.64 16.2-6.18-0.907s-6.72 6.34-20.3 6.52c-13.6 0.191-23.1-1.99-30.1-15.5-7.08-13.4-19.5-50.4-8.53-56.9" fill="#3f8735" stroke="#000" stroke-width="2.2"/><path d="m306 263c20.3-2.3 32.4-0.101 51.5 4.4-3.22-7.4-40.2-48.2-46.1-59.3l-8.87 17.6z" fill="#b1e3fa" stroke-width="2.09"/><g stroke="#000" stroke-linecap="round" stroke-linejoin="round" stroke-width="2.2"><path d="m76.1 299 55.7 18.1-33.1 16.6-0.9 0.6c-7 2.5-12.1 9.2-12.1 17 0 10 8.1 18.1 18.1 18.1h109c3.3 0 6.4-1.1 8.8-3l32.4-21.5c0.4 0.1 0.7 0.2 1.1 0.2h0.4l35.5-3.3 8.6 3.1c1 0.3 2 0.3 3-0.1l16.2-6.7c1.2-0.5 2-1.4 2.4-2.6s0.2-2.5-0.5-3.5l-4.8-7 5.5-5.5c1.3-1.3 1.6-3.2 0.8-4.8l-4-8.1 1.7-2.5c10 3.3 13.9 20 20.1 35.3l2.7 7.3c-4.4 1.4-15.6 4.4-30.7 4.4-3.3 0-6.6-0.1-9.8-0.4-2.2-0.2-4.2 1.4-4.5 3.7-0.3 2.2 1.3 4.3 3.5 4.6 0.7 0.1 16.6 2.3 37.1 2.3 2.2 0 4.4 0 6.7-0.1-6.5 1.8-17.6 4-31.5 4-3.8 0-7.6-0.2-11.4-0.5-2.2-0.2-4.2 1.4-4.5 3.7-0.3 2.2 1.3 4.3 3.5 4.6 0.8 0.1 19.2 2.8 42.9 2.8 33.1 0 76.2-5.3 93.9-30.6 1.2-1.7 0.9-4.1-0.6-5.5-1.6-1.4-3.9-1.4-5.5-0.1-0.2 0.2-25.1 21.4-59.4 21.4-3.7 0-7.5-0.3-11.2-0.8 23.3-2.3 47.1-8.8 58.6-24.8 1.2-1.7 1-4-0.6-5.5-1.5-1.4-3.9-1.5-5.5-0.1-0.2 0.2-21.5 17.8-51 17.8-3.8 0-7.6-0.3-11.4-0.9l-3.6-9.6c-3.27-9.57-6.55-37 1.8-14 1.68 3.42 10.7-2.56 15.2-2 14.2-2.8 20.3 0.262 28.7-11.5 0.8-1.3 0.7-3-0.1-4.3l-7.9-12.3c0-0.1-0.1-0.1-0.1-0.1l-0.3-0.3-22.9-26.1c-0.6-0.7-1.5-1.2-2.4-1.3-3.9-9.2-19.8-43.1-47.4-62.2-1.9-1.3-4.5-0.8-5.8 1-0.3 0.5-7.7 11.3-9 22.4-0.1 0.9 0.1 1.7 0.5 2.5l5.4 9.8-0.1 4.6c-0.908-0.028-15.5-14.7-15.5-14.7-1.1-1.4-3-1.8-4.7-1.2-8.17-2.74-15 5.86-8 12l5.94-3.44c14.2 13.3 21.6 14.7-2.58 29.5-11.3-1.89-117-0.519-167-17.1-1.7-0.1-3.2 0.9-3.9 2.4s-0.4 3.3 0.7 4.5l23.3 25.9c0.7 0.8 1.6 1.2 2.6 1.3l36.8 4 9.1 6.9-43.7-4.3-50.5-8.2c-1.5-0.2-3 0.4-4 1.6l-7.9 10.3c-0.8 1.1-1.1 2.5-0.7 3.8 0.5 1 1.5 2 2.8 2.4zm27.8 62.2c-5.4 0-9.8-4.4-9.8-9.8s4.4-9.8 9.8-9.8c3.7 0 6.9 2.1 8.6 5.1 0.8 1.4 1.2 3 1.2 4.7-0.1 5.4-4.4 9.8-9.8 9.8zm9.2-25.4 21.8-10.9-17.9 14.1c-1.2-1.3-2.5-2.3-3.9-3.2zm5.9 25.4c1.1-1.7 1.9-3.6 2.4-5.6h36.2c0.1 2 0.5 3.9 1.3 5.6zm41-14h-38.6c-0.1-0.3-0.2-0.7-0.3-1l29.1-22.9 13.9 19.8c-1.6 1-3 2.5-4.1 4.1zm0.5-23.9 32.1 6.2-20.7 10.1zm11.5 37.9c-3.4 0-6.1-2.7-6.1-6.1s2.7-6.1 6.1-6.1 6.1 2.7 6.1 6.1-2.7 6.1-6.1 6.1zm20.5 0c-3.4 0-6.1-2.7-6.1-6.1s2.7-6.1 6.1-6.1 6.1 2.7 6.1 6.1-2.8 6.1-6.1 6.1zm20.4 0c-3.4 0-6.1-2.7-6.1-6.1s2.7-6.1 6.1-6.1 6.1 2.7 6.1 6.1-2.7 6.1-6.1 6.1zm14.2-8.3c-1.1-6.9-7-12.2-14.2-12.2-4 0-7.6 1.6-10.2 4.3-2.6-2.6-6.2-4.3-10.2-4.3s-7.6 1.6-10.2 4.3c-0.3-0.3-0.6-0.5-0.9-0.8l24.8-12.1 31.7 6.1 7 2.9zm84.3-141c10.4 8.1 19 18.5 25.6 28.3 0 0 12.1 21.4 11.1 22.7-0.504 0.705-11-3.17-36.3-16.3l0.2-9.3c0-0.7-0.2-1.5-0.5-2.1l-5.3-9.5c0.8-5.3 3.3-10.5 5.2-13.8zm-224 77.1 48.1 7.9h0.3l3.9 13.5-55-17.9z" fill="#c33636"/><path d="m295 279-33.2 26.8c-6.4 1.4-116-8.43-118-8.23l4.08 15.2 82.5 9.71 25.3 14c9.87 0.868 28.4-5.35 37.1-3.1l8 2.8 10-4.2c-22.5-35.3-2-63.3-15.9-53z" fill="#fbb040"/><path d="m328 272c7.14 21.4 25.2 47.7 57 35.1-13.1-25.9-27.5-34-57-35.1z" fill="#fbb040"/></g><path d="m254 291 10-28.6-44.4 7.69c-1.54 0.274-3.28 0.274-4.82 0l-24.3-10.5-79.4-11.5c40.5 38.4 100 31.2 143 42.9z" stroke-width="1.62"/><g stroke="#000" stroke-width="2.2"><path d="m188 261c16.2 13.8 41.3 13 51.7 11.6 1.21-0.141 2.21-0.316 3-0.463 0.39-0.0733 0.779-0.16 1.2-0.249 7.59-1.53 19.3-4.59 20.6-8.94 1.32-4.6-3.63-25.2-3.63-25.2s8.94-37.5 3.63-49.8c-2.05-4.7-5.78-7.68-8.97-9.47-3.15-1.77-5.79-2.38-5.79-2.38l-7.57-1.81-9.22-1.71s-9.49-3.22-18.7-3.21c-3.23 0-6.39 0.424-9.09 1.52-10.3 4.23-22.5 82.5-17 90.2" fill="#78cb43"/><path d="m241 272c1.21-0.141 2.21-0.316 3-0.463 0.39-0.0733 0.779-0.16 1.2-0.249 3.83-19.3-1.58-81.7-1.58-81.7s2.65-10.6 3.87-14.2c0.0556-0.176 0.0825-0.351 0.0825-0.565l-4.15-0.995c0.0967 0.336 0.0967 0.609 0.0694 0.829-0.615 3.39-3.99 15.8-3.99 15.8s2.18 32.5 3.4 50.3c0.858 12.7-0.839 25.2-1.91 31.4" fill="#3f8735"/><path d="m214 168c4.31 7.64 15.9 15.6 19.3 17.6 4.12 2.28 7.63 2.17 14.4 0.224 4.41-1.24 6.81-5.31 7.97-8.02-3.15-1.77-5.79-2.38-5.79-2.38l-17.3-4.13s-9.49-3.22-18.7-3.21" fill="#3f8735"/><path d="m220 169c0.625 2.39 17 12.5 20.6 13.5 0.0967 0.0262 0.205 0.0539 0.293 0.0677 1.09 0.205 2.39 0.0152 3.62-0.347 2.11-0.61 4.15-1.71 5-2.28 1.22-0.814 3.86-6 4.35-9 0.0694-0.322 0.0968-0.625 0.0968-0.887 0-2.74-6.27-6.44-6.27-6.44-2.16-0.916-5.24-1.92-8.47-2.83l-0.191-0.0581-4.31-1.14c-5.47-1.37-10.4-2.29-11.2-2.05-0.658 0.22-1.63 2.24-2.4 4.57-0.858 2.58-1.48 5.57-1.15 6.85" fill="#78cb43"/><path d="m243 175c-0.278 1.52-1.12 4.86-1.95 8.1 0.0968 0.0262 0.205 0.0539 0.293 0.0677 1.09 0.205 2.39 0.0152 3.62-0.347 0.727-2.74 1.51-5.54 2.02-7.09 0.75-2.25-3.77-9.3-7.34-14.4l-0.191-0.0581-4.31-1.14c3.69 5.54 8.2 12.8 7.84 14.8" fill="#3f8735"/><path d="m221 162c3.63 5.22 13.1 11.1 21.4 12.3 4.95 0.731 8.83-1.4 11.3-3.47 0.0695-0.322 0.0968-0.625 0.0968-0.887 0-2.74-6.27-6.44-6.27-6.44-6.8-2.9-22.8-6.54-24.2-6.08-0.658 0.22-1.63 2.24-2.4 4.57" fill="#3f8735"/><path d="m253 137s-7.05-13.4-20.5-10.7c-13.4 2.69-16.2 16.6-16 18.4 0.214 1.78 36.5-7.68 36.5-7.68" fill="#439726"/><path d="m253 143s2.58 12.6-0.224 19.5c-2.57 6.36-5.46 7.79-9.98 8.04-3.26 0.18-9.59-1.82-13.4-5.51-5.14-5.02-9.14-14.1-9.14-14.1s16.9-14.8 32.8-7.99" fill="#f79d97"/><path d="m220 154c0.0139 0.131 0.0417 0.229 0.0556 0.351 0.0556 0.195 0.111 0.376 0.191 0.571 0.0417 0.131 0.111 0.274 0.17 0.405 0.0825 0.18 0.185 0.38 0.303 0.565 0.166 0.274 0.351 0.542 0.551 0.785 1.67 2.1 4.39 3.15 7.12 2.94 0.0278 0 0.0556-0.0109 0.0825-0.0109 0.16-0.0152 0.336-0.029 0.517-0.0442 0.189-0.0152 0.365-0.0332 0.556-0.0581 0.0694 3e-3 0.147-3e-3 0.22-0.0109 0.234-0.0262 0.469-0.0484 0.702-0.0774l1.37-0.151c2.97-0.361 5.97-0.814 7.39-1.22 5.87-0.887 9.38-4.67 9.38-4.67s4.05 2.07 7.02 1.78c4.44-0.428 2.31-9.05 2.31-9.05-0.677-0.326-1.37-0.605-2.07-0.849-10.5-3.66-22.8 0.463-28.3 2.06-1.06 0.307-2.1 0.687-3.05 1.14-2.38 1.11-4.24 2.53-4.46 3.79-0.111 0.634-0.124 1.21-0.0278 1.77" fill="#4c85cd"/><path d="m220 154c0.0139 0.131 0.0417 0.229 0.0556 0.351 0.0556 0.195 0.111 0.376 0.191 0.571 0.0417 0.131 0.111 0.274 0.17 0.405 0.0825 0.18 0.185 0.38 0.303 0.565 0.166 0.274 0.351 0.542 0.551 0.785 1.67 2.1 4.39 3.15 7.12 2.94 0.0278 0 0.0556-0.0109 0.0825-0.0109 0.16-0.0152 0.336-0.029 0.517-0.0442 0.189-0.0152 0.365-0.0332 0.556-0.0581 0.0694 3e-3 0.147-3e-3 0.22-0.0109 0.234-0.0262 0.469-0.0484 0.702-0.0774l1.37-0.151c-5.04-3.07-6.79-7.42-7.35-10.8-2.38 1.11-4.24 2.53-4.46 3.79-0.111 0.634-0.124 1.21-0.0278 1.77" fill="#3a1916"/><path d="m227 149c2.27 4.55 8 7.44 13 5.93 4.3-1.29 8.14-4.89 8.14-4.89s3.87 2.86 6.21 2.05c1.76-0.614 1.81-4.34 1.41-6.74-10.5-3.66-23.5 1.3-28.7 3.65" fill="#fff"/><path d="m260 146c-0.351 1.4-1.8 1.74-1.8 1.74s-5.89-2.94-13.8-2.29c-7.95 0.658-21.6 6.76-25.2 10.2-2.57-3.28-4.66-9.56-2.93-11.9 1.73-2.34 24.3-13.7 37.9-7.32 5.21 2.65 5.83 9.54 5.83 9.54" fill="#44ce2f"/><path d="m197 171s11.3-4.6 20.2 9.37c7.88 12.4 12.3 30.7 12.3 30.7s13.1 0.731 17.8 3.28c4.71 2.54 7.99 7.63 7.99 7.63l8.54-0.441-1.64 16.2-6.18-0.907s-6.72 6.34-20.3 6.52c-13.6 0.191-23.1-1.99-30.1-15.5-7.08-13.4-19.5-50.4-8.53-56.9" fill="#3f8735"/><path d="m258 239c1.26 2.27 7.53 2.9 10.4 2.99 2.16 0.0581 5.89-4.52 7.92-7.97 0.683-1.17 1.17-2.23 1.34-2.92 2 0.366 3.54-0.985 3.54-3.26 0-2.27-8.35-5.25-13.6-6.08-5.27-0.814-10.9 14.9-9.63 17.3" fill="#2f8ece"/></g></g></svg>
