<svg width="512" height="512" enable-background="new 0 0 64 64" version="1.1" viewBox="0 0 64 64" xmlns="http://www.w3.org/2000/svg"><g stroke="#000" stroke-linecap="round" stroke-linejoin="round"><path d="m38.7 37.5h-13.3c-0.915 0-1.66-0.808-1.66-1.81v-17.2c0-0.993 0.744-1.81 1.66-1.81h13.3c0.915 0 1.66 0.808 1.66 1.81v17.2c0 0.993-0.744 1.81-1.66 1.81z" fill="#48a187" stroke-width="1.3"/><g stroke-width="1.5"><path d="m30 19h-6l-5.79 2 7.79 5v10h12v-10l6.86-5.5-4.86-1.5h-6" fill="#f8ec8f"/><path d="m40.9 23.7 8.98 2.95c0.496 0.148 1.02 0.145 1.52-0.0074 0.731-0.225 1.33-0.758 1.63-1.46l3.19-7.35-3.75-1.98-2.35 5.96-5.11-1.26" fill="#f8d4bf"/><path d="m17.6 51.7-4.05 4.8-7.52-5.46 1.42-1.15c0.856-0.691 1.91-0.978 2.78-0.298l2.72 2.13 2.13-1.58" fill="#db8c74"/><path d="m48.4 52.3 5.65 5.34 5.79-7.62-1.75-1.74c-0.778-0.777-1.59-0.494-2.28 0.365l-2.2 4-2.29-1.42" fill="#db8c74"/><path d="m38 36 13.4 14.9-3.57 1.43-15.8-12.4-14.1 12.1-3.07-2.36 11.1-13.8" fill="#c8af8f"/><path d="m29 17 3 5 3-5" fill="#f6c0a1"/><path d="m37 19 2.06 11.3-2.06 1.65-3.93-11.8 0.729-1.21z" fill="#62d7c3"/><path d="m27 19-2.06 11.3 2.06 1.65 3.93-11.8-0.729-1.21z" fill="#62d7c3"/><path d="m25.5 37.6 13-0.326 0.328-3.11-13.4 0.342z" fill="#8162d7"/></g></g><g transform="matrix(-.259 -.966 -.966 .259 49.6 37.7)" stroke="#000" stroke-linecap="round" stroke-linejoin="round" stroke-width="1.5"><path d="m20 22.9-0.0654 5.71c0.0358 1.08-0.0097 2.86 0.335 3.24 2.17 2.03 5.22 2.59 7.98 3.4l1.67-3.53-5.89-2.36 0.121-3.24" fill="#f8d4bf"/><path d="m30.2 31.8 2.97 1.34-1.47 3.18-3.16-0.923" fill="#f6c0a1"/></g><g stroke="#000" stroke-linecap="round" stroke-linejoin="round" stroke-width="1.5"><path d="m52.6 15.8 0.646-3.55 3.94 1.56-0.646 3.55" fill="#f6c0a1"/><path d="m26 12.5c-1.84-1.1-3-2.7-3-4.47 0-3.31 4.03-6 9-6s9 2.69 9 6c0 1.78-1.16 3.37-3 4.47" fill="#ca6b4a"/><path d="m32 6c-0.597 1.79-2.27 3-4.16 3h-1.84v3c0 3.31 2.69 6 6 6s6-2.69 6-6v-3h-1.84c-1.89 0-3.56-1.21-4.16-3z" fill="#f8d4bf"/></g></svg>
