<svg width="512" height="512" version="1.1" viewBox="0 0 128 128" xmlns="http://www.w3.org/2000/svg"><g stroke="#000" stroke-linecap="round" stroke-linejoin="round" stroke-width="3"><g fill="#a07854"><path d="m111 74.8v-17.1l-47-42.8-47 42.8v17.1z"/><path d="m98.8 86.5h12.2v16.5h-12.2z"/><path d="m17 86.5h12.2v16.5h-12.2z"/><path d="m59 86.5h10v16.5h-10z"/><path d="m17 115h12.2v11.5h-12.2z"/><path d="m59 115h52v11.5h-52z"/></g><path d="m120 66-56-51-56 51-6.21-7.57 62.2-56.6 62.2 56.6z" fill="#3c3a41"/><path d="m17 57.7v0.573h94v-0.573l-12.3-11.2h-69.4z" fill="#896748"/><path d="m29.2 74.8h29.8v51.5h-29.8z" fill="#3c3a41"/><path d="m51 106a1.75 1.75 0 0 1-1.75-1.75v-7.69a1.75 1.75 0 0 1 3.5 0v7.69a1.75 1.75 0 0 1-1.75 1.75z" fill="#57555c"/><path d="m69 74.8h29.8v40h-29.8z" fill="#f5f5f5"/><path d="m111 74.8h-12.5v11.8h12.5a5.88 5.88 0 0 0 0-11.8z" fill="#896748"/><path d="m111 103h-12.5v11.8h12.5a5.88 5.88 0 0 0 0-11.8z" fill="#896748"/><path d="m98.8 93h-13.1v-18.2h-3.5v18.2h-13.1v3.5h13.1v18.2h3.5v-18.2h13.1z" fill="#e0e0e0"/><g fill="#896748"><path d="m29.2 74.8h-12.5a5.88 5.88 0 0 0 0 11.8h12.5z"/><path d="m59 74.8h10v11.8h-10z"/><path d="m29.2 103h-12.5a5.88 5.88 0 0 0 0 11.8h12.5z"/><path d="m59 103h10v11.8h-10z"/></g></g></svg>
