<?xml version="1.0" encoding="UTF-8"?>
<svg width="1069" height="1069" version="1.1" viewBox="0 0 282.9 282.9" xmlns="http://www.w3.org/2000/svg"><g transform="translate(36.46 -7.043)"><circle cx="105" cy="148.5" r="141" fill="#f2f2f2"/><path transform="matrix(.2646 0 0 .2646 -262.9 -219.4)" d="m1180 1138c-38.78 4.196-78.35 8.54-115.3 22.79-25.1 8.515-48.22 12.2-73.98 19.82-29.71 9.779-56.94 25.38-86.17 34.02-5.314-1.372-10.65-2.626-16-3.826-20.88 57.8-31.62 118.8-31.74 180.2 0.1369 127.6 45.98 250.9 129.2 347.6 9.004-8.384 18.01-16.64 27.66-23.85 12.62-16.94 24.91-32.14 35.35-46.55 20.54-21.13 40.62-44.25 63.93-62.47 23.87-10.33 33.34-36.56 51.23-66.29 6.604-26.67 21.78-43.72 39.14-63.02 11.63-10.12 22.79-30.44 38.67-44.38 25.21-15.05 49.05-3.675 74.76-5.568 16.23 0.1542 50.27 3.436 16.28-10.27 19.59-25.22 36.71-64.81 36.11-101.5 5.123-22.55-16.96-39.84-19.61-67.01-9.63-32.22-22.54-64.21-49.49-86.16-14.25-9.827-33.95-16.06-50.77-14.82-19.11-9.542-46.07-7.493-69.3-8.734zm74.59 92.89c34 1.666 39.67 59.94-3.35 48.89-16.89 4.359-40.62-23.87-27.78-31.36-3.552 28.79 46.79 36.14 51.57 13.43 11.73-38.7-77.51-19.29-20.45-30.95zm-8.646 7.068c1.61 0.046 3.345 0.2363 5.209 0.5879 18.1-4.572 14.58 33.74 5.721 8.035-25.42-7.788-12.78 23.47-9.254 25.04-21.75-2.725-25.83-34.36-1.676-33.67z" fill="#35353a"/><path d="m188.2 219.9c-15.5-7.876-29.89-17.71-44.28-27.07-6.312-4.766-12.83-9.069-18.99-13.94-3.158-2.988-7.012-5.272-10.52-8.018-4.254-3.452-9.618-6.235-13.35-8.907-4.591-4.309-19.54-6.309-10.51-13.3-2.034-3.09-11.14-11.59-1.818-7.729 3.944 3.353 1.026-1.238 5.168-0.1438-3.891-2.809-10.32-1.522-3.061-4.331 5.417-1.377 10.42-5.303 7.677-11.8 5.026 3.078 8.579 9.095 13.75 11.35 21.55 17.83 46.73 30.77 69.17 47.62 8.226 6.099 16.82 11.8 23.87 19.28-1.179 7.275-11.68-4.27-16.27-5.533-27.24-15.52-54.65-31.01-81.01-47.82-4.1-2.155-10.58-6.069-3.583-0.1146 27.04 23.75 56.55 44.48 84.72 66.84-33.12-19.95 21.51 10.2-0.9642 3.617zm-67.98-69.91c-1.239-2.827-2.03 0.404 0 0zm-54.54-31.02c-7.182 0.1954-6.958-14.13-3.591-3.494 5.11 6.974 18.95-0.8576 8.46-7.231-3.99-1.148-11.15 0.0639-2.824-1.868 9.469-0.8836 12.05 15.93 0.04347 12.91l-2.089-0.3135zm-0.2874-2.096c-10.77-5.277 6.079-13.7 6.078-4.088-1.273-3.24-10.28-2.216-5.043 2.888 3.611 1.678-0.351 1.631-1.035 1.201z" fill="#e04d23" stroke-width=".2646"/></g></svg>
