<?xml version="1.0" encoding="UTF-8" standalone="no"?>
<!-- Created with Inkscape (http://www.inkscape.org/) -->

<svg
   width="1069.282"
   height="1069.2815"
   viewBox="0 0 282.91421 282.91406"
   version="1.1"
   id="svg5"
   sodipodi:docname="favicon.svg"
   inkscape:version="1.1 (c68e22c387, 2021-05-23)"
   xmlns:inkscape="http://www.inkscape.org/namespaces/inkscape"
   xmlns:sodipodi="http://sodipodi.sourceforge.net/DTD/sodipodi-0.dtd"
   xmlns="http://www.w3.org/2000/svg"
   xmlns:svg="http://www.w3.org/2000/svg"
   xmlns:rdf="http://www.w3.org/1999/02/22-rdf-syntax-ns#"
   xmlns:cc="http://creativecommons.org/ns#">
  <sodipodi:namedview
     id="namedview7"
     pagecolor="#ffffff"
     bordercolor="#666666"
     borderopacity="1.0"
     inkscape:pageshadow="2"
     inkscape:pageopacity="0.0"
     inkscape:pagecheckerboard="0"
     inkscape:document-units="mm"
     showgrid="false"
     inkscape:zoom="0.70710678"
     inkscape:cx="535.27983"
     inkscape:cy="508.40978"
     inkscape:window-width="1920"
     inkscape:window-height="1144"
     inkscape:window-x="0"
     inkscape:window-y="27"
     inkscape:window-maximized="1"
     inkscape:current-layer="layer1"
     fit-margin-top="1"
     fit-margin-left="1"
     fit-margin-right="1"
     fit-margin-bottom="1"
     units="px" />
  <defs
     id="defs2" />
  <g
     inkscape:label="Layer 1"
     inkscape:groupmode="layer"
     id="layer1"
     transform="translate(36.457179,-7.0429728)">
    <circle
       style="fill:#f2f2f2;fill-opacity:1;stroke:none;stroke-width:237.801;stroke-linecap:round;stroke-linejoin:bevel;stroke-miterlimit:4;stroke-dasharray:none;stroke-opacity:1"
       id="path7828-3"
       cx="104.99992"
       cy="148.5"
       inkscape:export-filename="/home/magic/WebstormProjects/galleria/src/icons/favicon/favicon16.png"
       inkscape:export-xdpi="1.4391705"
       inkscape:export-ydpi="1.4391705"
       r="141" />
    <path
       id="path7828"
       style="fill:#35353a;fill-opacity:1;stroke:none;stroke-width:900;stroke-linecap:round;stroke-linejoin:bevel;stroke-miterlimit:4;stroke-dasharray:none;stroke-opacity:1"
       d="m 1180.1211,1137.5566 c -38.7776,4.1964 -78.3542,8.5401 -115.2754,22.7891 -25.1015,8.5152 -48.2214,12.1986 -73.98242,19.8164 -29.70663,9.7789 -56.94142,25.3846 -86.17187,34.0156 -5.31432,-1.3719 -10.65241,-2.6264 -16.00196,-3.8261 -20.87965,57.8041 -31.61695,118.7807 -31.73828,180.2402 0.13692,127.5852 45.98041,250.8993 129.22071,347.5898 9.00434,-8.3837 18.01022,-16.6372 27.65822,-23.8535 12.6195,-16.9357 24.9056,-32.1378 35.3515,-46.5527 20.5446,-21.1337 40.6185,-44.2501 63.9278,-62.4688 23.8657,-10.3257 33.3418,-36.564 51.2324,-66.291 6.6035,-26.6745 21.7758,-43.7194 39.1426,-63.0215 11.6271,-10.1233 22.786,-30.4401 38.666,-44.3847 25.2063,-15.0468 49.0497,-3.6751 74.7599,-5.5684 16.2276,0.1542 50.2656,3.4362 16.2754,-10.2695 19.5901,-25.2183 36.7058,-64.8073 36.1133,-101.4844 5.1229,-22.5495 -16.9615,-39.8398 -19.6133,-67.0098 -9.6305,-32.2165 -22.536,-64.2102 -49.4882,-86.164 -14.2514,-9.827 -33.946,-16.0561 -50.7676,-14.8223 -19.1074,-9.5424 -46.068,-7.4933 -69.3047,-8.7344 z m 74.5898,92.8926 c 34.0022,1.666 39.6657,59.9447 -3.3496,48.8867 -16.8886,4.3588 -40.6215,-23.8687 -27.7773,-31.3613 -3.5522,28.7903 46.7921,36.1402 51.5722,13.4277 11.7288,-38.6956 -77.5121,-19.2906 -20.4453,-30.9531 z m -8.6464,7.0684 c 1.61,0.046 3.3448,0.2363 5.2089,0.5879 18.1048,-4.5724 14.5789,33.7353 5.7207,8.0351 -25.4165,-7.788 -12.7832,23.4704 -9.2539,25.0449 -21.7509,-2.7248 -25.8271,-34.3595 -1.6757,-33.6679 z"
       transform="matrix(0.26458333,0,0,0.26458333,-262.92759,-219.42758)"
       sodipodi:nodetypes="ccccccccccccccccccccccccccscccs" />
    <path
       style="fill:#e04d23;stroke-width:0.264583"
       d="m 188.1826,219.9327 c -15.49577,-7.87605 -29.89413,-17.70727 -44.27957,-27.06892 -6.31188,-4.7661 -12.82585,-9.06891 -18.99158,-13.94248 -3.15825,-2.9882 -7.01238,-5.27211 -10.51929,-8.0178 -4.25392,-3.45173 -9.61787,-6.23462 -13.35309,-8.90698 -4.591391,-4.30936 -19.540621,-6.3089 -10.51263,-13.30169 -2.034345,-3.09017 -11.136286,-11.58525 -1.81831,-7.72905 3.944179,3.35265 1.026184,-1.23844 5.168006,-0.14381 -3.890843,-2.80859 -10.32248,-1.52184 -3.061456,-4.33113 5.416628,-1.37721 10.42085,-5.30292 7.676737,-11.79593 5.026473,3.07754 8.579493,9.0946 13.752123,11.35358 21.54777,17.82551 46.73458,30.77251 69.16966,47.62092 8.22609,6.09917 16.82169,11.79749 23.86764,19.27738 -1.17905,7.27496 -11.68461,-4.27043 -16.26638,-5.53256 -27.24323,-15.51845 -54.64901,-31.00915 -81.00656,-47.82263 -4.10009,-2.15469 -10.575583,-6.06886 -3.58275,-0.1146 27.03517,23.75128 56.5499,44.48343 84.7216,66.83868 -33.12362,-19.95176 21.50905,10.20072 -0.96415,3.61702 z m -67.98163,-69.91186 c -1.2388,-2.82735 -2.03013,0.40395 0,0 z M 65.66279,118.99597 c -7.181746,0.19542 -6.957722,-14.12853 -3.59113,-3.49366 5.11043,6.97392 18.945748,-0.85765 8.4603,-7.23075 -3.989714,-1.14766 -11.152027,0.0639 -2.82403,-1.8682 9.468967,-0.8836 12.047187,15.92869 0.04347,12.90615 l -2.0888,-0.31354 z m -0.28744,-2.0963 c -10.77024,-5.27655 6.079071,-13.70219 6.077621,-4.08842 -1.272589,-3.23977 -10.275086,-2.21578 -5.042551,2.88773 3.610696,1.67808 -0.35099,1.63091 -1.03507,1.20069 z"
       id="path1056"
       sodipodi:nodetypes="ccccccccccccccccccccccccccccccc" />
  </g>
  <metadata
     id="metadata5037">
    <rdf:RDF>
      <cc:Work
         rdf:about="" />
    </rdf:RDF>
  </metadata>
</svg>
